<svg width="19" height="19" viewBox="0 0 19 19" fill="none" xmlns="http://www.w3.org/2000/svg">
<path d="M7.11447 15.5791L13.4056 9.49913L7.11447 3.41913C6.943 3.25396 6.71294 3.16367 6.4749 3.16813C6.23686 3.17258 6.01033 3.27141 5.84516 3.44288C5.67999 3.61435 5.5897 3.84441 5.59416 4.08245C5.59861 4.32049 5.69744 4.54702 5.86891 4.71219L10.8247 9.49913L5.86891 14.2914C5.69744 14.4565 5.59861 14.683 5.59416 14.9211C5.5897 15.1591 5.67999 15.3892 5.84516 15.5607C6.01033 15.7321 6.23685 15.831 6.4749 15.8354C6.71294 15.8399 6.943 15.7496 7.11447 15.5844L7.11447 15.5791Z" fill="black"/>
</svg>
