<svg width="19" height="19" viewBox="0 0 19 19" fill="none" xmlns="http://www.w3.org/2000/svg">
<g clip-path="url(#clip0_954_10798)">
<path d="M9.49993 5.18799C9.35996 5.18799 9.22571 5.24359 9.12673 5.34257C9.02776 5.44155 8.97215 5.57579 8.97215 5.71577V10.318L12.086 12.4291C12.2029 12.5033 12.3443 12.5287 12.4797 12.4996C12.6151 12.4706 12.7336 12.3895 12.8098 12.2739C12.8859 12.1583 12.9136 12.0174 12.8868 11.8815C12.86 11.7457 12.7809 11.6258 12.6666 11.5477L10.0277 9.75854V5.71577C10.0277 5.57579 9.9721 5.44155 9.87313 5.34257C9.77415 5.24359 9.63991 5.18799 9.49993 5.18799Z" fill="black"/>
<path d="M9.49994 1.05542C7.99221 1.0607 6.51307 1.46731 5.21451 2.23346C3.91594 2.99962 2.84476 4.09769 2.11105 5.41486V2.74431C2.11105 2.60433 2.05545 2.47009 1.95647 2.37111C1.85749 2.27214 1.72325 2.21653 1.58327 2.21653C1.4433 2.21653 1.30906 2.27214 1.21008 2.37111C1.1111 2.47009 1.0555 2.60433 1.0555 2.74431V7.38875H5.69994C5.83992 7.38875 5.97416 7.33315 6.07314 7.23417C6.17211 7.13519 6.22772 7.00095 6.22772 6.86098C6.22772 6.721 6.17211 6.58676 6.07314 6.48778C5.97416 6.3888 5.83992 6.3332 5.69994 6.3332H2.82355C3.4892 4.92836 4.58099 3.76925 5.94354 3.02083C7.30608 2.2724 8.86998 1.9728 10.4127 2.16465C11.9553 2.35649 13.3982 3.03002 14.5359 4.08937C15.6737 5.14873 16.4483 6.53994 16.7496 8.06503C17.0509 9.59012 16.8635 11.1714 16.2141 12.5838C15.5646 13.9962 14.4863 15.1678 13.1324 15.9319C11.7786 16.6959 10.2182 17.0135 8.67346 16.8395C7.12867 16.6654 5.67813 16.0085 4.52827 14.9624C4.47699 14.9156 4.41699 14.8794 4.3517 14.8558C4.28641 14.8322 4.21711 14.8217 4.14777 14.8248C4.07842 14.828 4.01038 14.8448 3.94753 14.8743C3.88468 14.9038 3.82825 14.9454 3.78147 14.9967C3.73469 15.048 3.69846 15.108 3.67487 15.1732C3.65127 15.2385 3.64077 15.3078 3.64395 15.3772C3.64714 15.4465 3.66395 15.5146 3.69343 15.5774C3.72291 15.6403 3.76449 15.6967 3.81577 15.7435C4.83024 16.6673 6.05454 17.33 7.38271 17.6742C8.71089 18.0185 10.1029 18.0339 11.4384 17.7191C12.7739 17.4044 14.0126 16.769 15.0473 15.8679C16.0819 14.9668 16.8815 13.8271 17.3767 12.5475C17.8719 11.268 18.0478 9.88698 17.8892 8.52411C17.7307 7.16123 17.2425 5.85752 16.4668 4.72577C15.6911 3.59403 14.6513 2.66834 13.4374 2.02882C12.2235 1.38929 10.872 1.05519 9.49994 1.05542Z" fill="black"/>
</g>
<defs>
<clipPath id="clip0_954_10798">
<rect width="19" height="19" fill="white"/>
</clipPath>
</defs>
</svg>
