<svg width="19" height="19" viewBox="0 0 19 19" fill="none" xmlns="http://www.w3.org/2000/svg">
<g clip-path="url(#clip0_954_10768)">
<path d="M9.50004 10.6875C9.42141 10.687 9.34387 10.669 9.2731 10.6347L1.35643 6.89277C1.26576 6.85015 1.1891 6.7826 1.13539 6.69802C1.08169 6.61343 1.05318 6.51532 1.05318 6.41513C1.05318 6.31494 1.08169 6.21682 1.13539 6.13224C1.1891 6.04766 1.26576 5.98011 1.35643 5.93749L9.2731 2.19554C9.34328 2.16259 9.41987 2.14551 9.4974 2.14551C9.57494 2.14551 9.65152 2.16259 9.72171 2.19554L17.6384 5.93749C17.729 5.98011 17.8057 6.04766 17.8594 6.13224C17.9131 6.21682 17.9416 6.31494 17.9416 6.41513C17.9416 6.51532 17.9131 6.61343 17.8594 6.69802C17.8057 6.7826 17.729 6.85015 17.6384 6.89277L9.72171 10.6347C9.65255 10.6682 9.57689 10.6862 9.50004 10.6875ZM2.81838 6.41777L9.50004 9.58443L16.1817 6.41777L9.50004 3.26166L2.81838 6.41777Z" fill="black"/>
<path d="M9.49992 13.8066C9.42129 13.8062 9.34375 13.7881 9.27298 13.7538L1.35631 10.0277C1.29227 9.99911 1.23459 9.95801 1.18662 9.90684C1.13865 9.85567 1.10136 9.79545 1.07694 9.7297C1.05251 9.66395 1.04144 9.59399 1.04436 9.52391C1.04728 9.45383 1.06414 9.38504 1.09395 9.32155C1.12377 9.25806 1.16594 9.20116 1.218 9.15415C1.27006 9.10715 1.33097 9.071 1.39716 9.04781C1.46336 9.02461 1.53351 9.01485 1.60352 9.01908C1.67354 9.02331 1.742 9.04146 1.80492 9.07245L9.49992 12.6983L17.1896 9.0619C17.2531 9.0321 17.3217 9.01508 17.3917 9.01181C17.4617 9.00854 17.5317 9.0191 17.5976 9.04287C17.6635 9.06664 17.7241 9.10316 17.7759 9.15034C17.8277 9.19753 17.8697 9.25445 17.8995 9.31787C17.9293 9.38129 17.9463 9.44995 17.9496 9.51995C17.9529 9.58995 17.9423 9.6599 17.9185 9.72581C17.8948 9.79173 17.8582 9.85232 17.8111 9.90412C17.7639 9.95593 17.7069 9.99793 17.6435 10.0277L9.72687 13.7697C9.65485 13.7985 9.57736 13.8111 9.49992 13.8066Z" fill="black"/>
<path d="M9.50002 16.9258C9.42139 16.9254 9.34385 16.9073 9.27308 16.873L1.35641 13.1311C1.23238 13.07 1.13728 12.9627 1.09156 12.8322C1.04584 12.7017 1.05316 12.5585 1.11193 12.4333C1.1707 12.3082 1.27624 12.2111 1.40585 12.1629C1.53546 12.1148 1.67879 12.1194 1.80502 12.1758L9.50002 15.8333L17.1897 12.1969C17.2527 12.1659 17.3211 12.1478 17.3911 12.1436C17.4612 12.1393 17.5313 12.1491 17.5975 12.1723C17.6637 12.1955 17.7246 12.2316 17.7767 12.2786C17.8287 12.3256 17.8709 12.3825 17.9007 12.446C17.9305 12.5095 17.9474 12.5783 17.9503 12.6484C17.9532 12.7185 17.9422 12.7884 17.9177 12.8542C17.8933 12.9199 17.856 12.9801 17.808 13.0313C17.7601 13.0825 17.7024 13.1236 17.6384 13.1522L9.72697 16.8889C9.65495 16.9177 9.57746 16.9303 9.50002 16.9258Z" fill="black"/>
</g>
<defs>
<clipPath id="clip0_954_10768">
<rect width="19" height="19" fill="white"/>
</clipPath>
</defs>
</svg>
