<svg width="19" height="19" viewBox="0 0 19 19" fill="none" xmlns="http://www.w3.org/2000/svg">
<g clip-path="url(#clip0_954_10709)">
<path d="M9.55278 5.80469C7.49445 5.80469 5.85834 7.4408 5.85834 9.49913C5.85834 11.5575 7.49445 13.1936 9.55278 13.1936C11.6111 13.1936 13.2472 11.5575 13.2472 9.49913C13.2472 7.4408 11.6111 5.80469 9.55278 5.80469ZM9.55278 12.138C8.075 12.138 6.91389 10.9769 6.91389 9.49913C6.91389 8.02135 8.075 6.86024 9.55278 6.86024C11.0306 6.86024 12.1917 8.02135 12.1917 9.49913C12.1917 10.9769 11.0306 12.138 9.55278 12.138Z" fill="black"/>
<path d="M17.3111 7.75747L15.8333 7.28247L15.5167 6.4908L16.2555 5.11858C16.4139 4.80191 16.3611 4.37969 16.0972 4.1158L14.8305 2.84913C14.5667 2.58524 14.1444 2.53247 13.8278 2.6908L12.4555 3.42969L11.6639 3.11302L11.1889 1.63524C11.0833 1.31858 10.7667 1.05469 10.3972 1.05469H8.60276C8.23332 1.05469 7.91665 1.31858 7.86388 1.68802L7.38888 3.1658C7.07221 3.21858 6.80832 3.32413 6.54443 3.48247L5.17221 2.74358C4.85554 2.58524 4.43332 2.63802 4.16943 2.90191L2.90276 4.16858C2.63888 4.43247 2.5861 4.85469 2.74443 5.17135L3.43054 6.4908C3.32499 6.75469 3.21943 7.07135 3.11388 7.33524L1.6361 7.81024C1.31943 7.9158 1.05554 8.23247 1.05554 8.60191V10.3964C1.05554 10.7658 1.31943 11.0825 1.68888 11.188L3.16665 11.663L3.48332 12.4547L2.74443 13.8269C2.5861 14.1436 2.63888 14.5658 2.90276 14.8297L4.16943 16.0964C4.43332 16.3602 4.85554 16.413 5.17221 16.2547L6.54443 15.5158L7.3361 15.8325L7.8111 17.363C7.91665 17.6797 8.23332 17.9436 8.60276 17.9436H10.3972C10.7667 17.9436 11.0833 17.6797 11.1889 17.363L11.6639 15.8325L12.4555 15.5158L13.8278 16.2547C14.1444 16.413 14.5667 16.3602 14.8305 16.0964L16.0972 14.8297C16.3611 14.5658 16.4139 14.1436 16.2555 13.8269L15.5167 12.4547L15.8333 11.663L17.3639 11.188C17.6805 11.0825 17.9444 10.7658 17.9444 10.3964V8.60191C17.9444 8.23247 17.6805 7.86302 17.3111 7.75747ZM16.8889 10.238L14.9889 10.8186L14.9361 11.0825L14.4611 12.1908L14.3028 12.4547L15.2528 14.1964L14.1972 15.2519L12.4555 14.3019L12.1917 14.4602C11.8222 14.6714 11.4528 14.8297 11.0833 14.9352L10.8194 14.988L10.2389 16.888H8.7611L8.18054 14.988L7.91665 14.9352L6.80832 14.4602L6.54443 14.3019L4.80276 15.2519L3.74721 14.1964L4.69721 12.4547L4.53888 12.1908C4.32776 11.8214 4.16943 11.4519 4.06388 11.0825L4.0111 10.8186L2.1111 10.238V8.76024L3.90554 8.23247L4.0111 7.96858C4.11665 7.54635 4.27499 7.17691 4.4861 6.80747L4.64443 6.54358L3.74721 4.80191L4.80276 3.74635L6.49165 4.69635L6.75554 4.53802C7.12499 4.32691 7.49443 4.16858 7.91665 4.06302L8.18054 3.95747L8.7611 2.11024H10.2389L10.8194 3.95747L11.0833 4.06302C11.4528 4.16858 11.8222 4.32691 12.1917 4.53802L12.4555 4.69635L14.1972 3.74635L15.2528 4.80191L14.3028 6.54358L14.4611 6.80747C14.6722 7.17691 14.8305 7.54635 14.9361 7.9158L14.9889 8.17969L16.8889 8.76024V10.238Z" fill="black"/>
</g>
<defs>
<clipPath id="clip0_954_10709">
<rect width="19" height="19" fill="white"/>
</clipPath>
</defs>
</svg>
