<svg width="19" height="19" viewBox="0 0 19 19" fill="none" xmlns="http://www.w3.org/2000/svg">
<g clip-path="url(#clip0_954_10805)">
<path d="M9.49999 8.97288C10.2307 8.97288 10.945 8.7562 11.5525 8.35025C12.1601 7.9443 12.6336 7.3673 12.9132 6.69223C13.1928 6.01716 13.266 5.27433 13.1234 4.55768C12.9809 3.84103 12.629 3.18274 12.1124 2.66606C11.5957 2.14939 10.9374 1.79752 10.2207 1.65497C9.50409 1.51242 8.76126 1.58559 8.08618 1.86521C7.41111 2.14483 6.83412 2.61836 6.42817 3.22591C6.02222 3.83346 5.80554 4.54774 5.80554 5.27843C5.80554 6.25826 6.19478 7.19795 6.88762 7.8908C7.58046 8.58364 8.52016 8.97288 9.49999 8.97288ZM9.49999 2.63954C10.0219 2.63954 10.5321 2.79431 10.9661 3.08427C11.4 3.37424 11.7383 3.78638 11.938 4.26857C12.1377 4.75077 12.19 5.28136 12.0882 5.79325C11.9863 6.30515 11.735 6.77535 11.366 7.14441C10.9969 7.51346 10.5267 7.76479 10.0148 7.86661C9.50291 7.96844 8.97232 7.91618 8.49013 7.71645C8.00793 7.51672 7.5958 7.17848 7.30583 6.74452C7.01587 6.31056 6.8611 5.80035 6.8611 5.27843C6.8611 4.57855 7.13912 3.90734 7.63401 3.41245C8.1289 2.91757 8.80011 2.63954 9.49999 2.63954Z" fill="black"/>
<path d="M16.0814 12.8616C15.235 11.967 14.2151 11.2544 13.0839 10.7674C11.9528 10.2805 10.7342 10.0293 9.50267 10.0293C8.27114 10.0293 7.05256 10.2805 5.92141 10.7674C4.79026 11.2544 3.77031 11.967 2.92392 12.8616C2.74042 13.0576 2.6385 13.3161 2.63892 13.5846V16.3607C2.63892 16.6407 2.75013 16.9092 2.94808 17.1071C3.14604 17.3051 3.41452 17.4163 3.69447 17.4163H15.3056C15.5855 17.4163 15.854 17.3051 16.052 17.1071C16.2499 16.9092 16.3611 16.6407 16.3611 16.3607V13.5846C16.363 13.3168 16.263 13.0584 16.0814 12.8616ZM15.3056 16.3607H3.69447V13.5793C4.44245 12.7917 5.34288 12.1645 6.34094 11.736C7.339 11.3074 8.41384 11.0864 9.50003 11.0864C10.5862 11.0864 11.6611 11.3074 12.6591 11.736C13.6572 12.1645 14.5576 12.7917 15.3056 13.5793V16.3607Z" fill="black"/>
</g>
<defs>
<clipPath id="clip0_954_10805">
<rect width="19" height="19" fill="white"/>
</clipPath>
</defs>
</svg>
