<svg width="19" height="19" viewBox="0 0 19 19" fill="none" xmlns="http://www.w3.org/2000/svg">
<path d="M3.41989 7.11514L9.49989 13.4063L15.5799 7.11514C15.7451 6.94367 15.8354 6.71361 15.8309 6.47557C15.8264 6.23753 15.7276 6.011 15.5561 5.84583C15.3847 5.68066 15.1546 5.59037 14.9166 5.59483C14.6785 5.59928 14.452 5.69811 14.2868 5.86958L9.49989 10.8254L4.70767 5.86958C4.5425 5.69811 4.31598 5.59928 4.07793 5.59483C3.83989 5.59037 3.60983 5.68066 3.43836 5.84583C3.26689 6.01101 3.16806 6.23753 3.16361 6.47557C3.15915 6.71361 3.24944 6.94367 3.41461 7.11514L3.41989 7.11514Z" fill="black"/>
</svg>
