<svg width="17" height="17" viewBox="0 0 17 17" fill="none" xmlns="http://www.w3.org/2000/svg">
<g clip-path="url(#clip0_954_11438)">
<path d="M9.16636 8.4998L12.6089 5.0573C12.6862 4.96696 12.7267 4.85076 12.7221 4.73191C12.7175 4.61306 12.6682 4.50033 12.5841 4.41623C12.5 4.33213 12.3873 4.28286 12.2684 4.27827C12.1496 4.27368 12.0334 4.3141 11.943 4.39146L8.50053 7.83396L5.05803 4.38674C4.96769 4.30938 4.85149 4.26895 4.73264 4.27355C4.6138 4.27814 4.50106 4.3274 4.41696 4.4115C4.33286 4.4956 4.28359 4.60834 4.279 4.72719C4.27441 4.84604 4.31483 4.96224 4.3922 5.05258L7.8347 8.4998L4.38747 11.9423C4.33804 11.9846 4.29789 12.0367 4.26955 12.0953C4.2412 12.1539 4.22528 12.2177 4.22276 12.2827C4.22025 12.3478 4.23121 12.4126 4.25495 12.4732C4.27869 12.5338 4.3147 12.5889 4.36072 12.6349C4.40674 12.6809 4.46178 12.7169 4.52238 12.7407C4.58298 12.7644 4.64783 12.7754 4.71286 12.7728C4.77789 12.7703 4.84171 12.7544 4.90029 12.7261C4.95888 12.6977 5.01097 12.6576 5.05331 12.6081L8.50053 9.16563L11.943 12.6081C12.0334 12.6855 12.1496 12.7259 12.2684 12.7213C12.3873 12.7167 12.5 12.6675 12.5841 12.5834C12.6682 12.4993 12.7175 12.3865 12.7221 12.2677C12.7267 12.1488 12.6862 12.0326 12.6089 11.9423L9.16636 8.4998Z" fill="black"/>
</g>
<defs>
<clipPath id="clip0_954_11438">
<rect width="17" height="17" fill="white"/>
</clipPath>
</defs>
</svg>
