<svg width="17" height="17" viewBox="0 0 17 17" fill="none" xmlns="http://www.w3.org/2000/svg">
<g clip-path="url(#clip0_954_11516)">
<path d="M15.5835 1.88892H1.4168C1.29156 1.88892 1.17145 1.93867 1.08289 2.02723C0.994332 2.11579 0.94458 2.2359 0.94458 2.36114V3.14975C0.945279 3.37492 1.03529 3.5906 1.19486 3.74947L6.61125 9.24614V14.0628L7.55569 14.4217V8.97225C7.55605 8.9101 7.54414 8.8485 7.52064 8.79096C7.49714 8.73343 7.46251 8.6811 7.41875 8.63697L1.88902 3.11197V2.83336H15.1112V3.12142L9.60041 8.63697C9.55322 8.6795 9.5151 8.73112 9.48832 8.78873C9.46154 8.84634 9.44667 8.90876 9.44458 8.97225V15.2103L10.389 15.5834V9.20836L15.8054 3.77781C15.8861 3.69746 15.9499 3.60172 15.9929 3.49627C16.0359 3.39081 16.0572 3.27779 16.0557 3.16392V2.36114C16.0557 2.2359 16.0059 2.11579 15.9174 2.02723C15.8288 1.93867 15.7087 1.88892 15.5835 1.88892Z" fill="black"/>
</g>
<defs>
<clipPath id="clip0_954_11516">
<rect width="17" height="17" fill="white"/>
</clipPath>
</defs>
</svg>
