<svg width="17" height="17" viewBox="0 0 17 17" fill="none" xmlns="http://www.w3.org/2000/svg">
<g clip-path="url(#clip0_954_11436)">
<path d="M10.389 15.5834V9.20836L15.8054 3.77781C15.8861 3.69746 15.9499 3.60172 15.9929 3.49627C16.0359 3.39081 16.0572 3.27779 16.0557 3.16392V2.36114C16.0557 2.2359 16.0059 2.11579 15.9174 2.02723C15.8288 1.93867 15.7087 1.88892 15.5835 1.88892H1.4168C1.29156 1.88892 1.17145 1.93867 1.08289 2.02723C0.994332 2.11579 0.94458 2.2359 0.94458 2.36114V3.14975C0.945279 3.37492 1.03529 3.5906 1.19486 3.74947L6.61125 9.24614V14.0628L10.389 15.5834Z" fill="black"/>
<path d="M15.8099 1.88892H1.17102C1.10922 1.89368 1.05151 1.92164 1.00947 1.96719C0.967429 2.01273 0.944167 2.07249 0.944351 2.13447V2.94669C0.943783 3.02994 0.959773 3.11248 0.991389 3.18949C1.02301 3.26651 1.06962 3.33647 1.12852 3.39531L6.79518 9.06197V13.7842L10.2188 15.4889V9.05253L15.8855 3.38586C15.9939 3.26892 16.0545 3.1156 16.0555 2.95614V2.13447C16.0555 2.06935 16.0296 2.00689 15.9835 1.96084C15.9375 1.91479 15.875 1.88892 15.8099 1.88892Z" fill="black"/>
</g>
<defs>
<clipPath id="clip0_954_11436">
<rect width="17" height="17" fill="white"/>
</clipPath>
</defs>
</svg>
