<svg width="24" height="24" viewBox="0 0 24 24" fill="none" xmlns="http://www.w3.org/2000/svg">
<g clip-path="url(#clip0_954_29582)">
<path d="M7.01345 22.6666H5.01345C4.90129 22.6646 4.79145 22.6343 4.6941 22.5786C4.59675 22.5228 4.51504 22.4434 4.45654 22.3477C4.39805 22.2519 4.36465 22.143 4.35945 22.031C4.35425 21.9189 4.37741 21.8073 4.42679 21.7066L8.36679 13.9999H4.00012C3.87998 14.0009 3.76179 13.9695 3.65807 13.9088C3.55435 13.8482 3.46894 13.7606 3.41088 13.6554C3.35283 13.5503 3.32427 13.4313 3.32825 13.3112C3.33222 13.1912 3.36857 13.0744 3.43345 12.9733L10.5535 1.63993C10.6118 1.54883 10.6915 1.47331 10.7856 1.41988C10.8796 1.36645 10.9853 1.33673 11.0935 1.33326H20.0468C20.1799 1.32697 20.3119 1.36071 20.4256 1.43014C20.5394 1.49957 20.6297 1.6015 20.685 1.72278C20.7402 1.84405 20.7579 1.9791 20.7356 2.1105C20.7133 2.2419 20.6522 2.36361 20.5601 2.45993L14.5201 9.33327H18.1068C18.2338 9.33594 18.3573 9.37484 18.463 9.44537C18.5686 9.51591 18.6519 9.61515 18.703 9.73141C18.7541 9.84768 18.771 9.97613 18.7516 10.1017C18.7322 10.2272 18.6773 10.3445 18.5935 10.4399L7.50679 22.4399C7.44506 22.5102 7.36923 22.5667 7.28424 22.6058C7.19924 22.6448 7.10698 22.6655 7.01345 22.6666ZM6.12012 21.3333H6.72679L16.5735 10.6666H13.0601C12.927 10.6729 12.795 10.6392 12.6813 10.5697C12.5675 10.5003 12.4772 10.3984 12.4219 10.2771C12.3667 10.1558 12.3491 10.0208 12.3713 9.88936C12.3936 9.75796 12.4547 9.63625 12.5468 9.53993L18.5868 2.6666H11.4601L5.18012 12.6666H9.46679C9.57895 12.6686 9.68879 12.6989 9.78614 12.7546C9.88349 12.8104 9.9652 12.8898 10.0237 12.9855C10.0822 13.0812 10.1156 13.1902 10.1208 13.3022C10.126 13.4143 10.1028 13.5259 10.0535 13.6266L6.12012 21.3333Z" fill="black"/>
</g>
<defs>
<clipPath id="clip0_954_29582">
<rect width="24" height="24" fill="white"/>
</clipPath>
</defs>
</svg>
