<svg width="24" height="24" viewBox="0 0 24 24" fill="none" xmlns="http://www.w3.org/2000/svg">
<g clip-path="url(#clip0_954_29570)">
<path d="M21.4133 6.66675H2.58659C2.25418 6.66675 1.93539 6.7988 1.70034 7.03384C1.4653 7.26889 1.33325 7.58768 1.33325 7.92008V20.0801C1.33325 20.4125 1.4653 20.7313 1.70034 20.9663C1.93539 21.2014 2.25418 21.3334 2.58659 21.3334H21.4133C21.7457 21.3334 22.0644 21.2014 22.2995 20.9663C22.5345 20.7313 22.6666 20.4125 22.6666 20.0801V7.92008C22.6666 7.58768 22.5345 7.26889 22.2995 7.03384C22.0644 6.7988 21.7457 6.66675 21.4133 6.66675ZM21.3333 20.0001H2.66659V8.00008H21.3333V20.0001Z" fill="black"/>
<path d="M20.0933 1.99992C20.0933 1.82311 20.023 1.65354 19.898 1.52851C19.773 1.40349 19.6034 1.33325 19.4266 1.33325H4.75993C4.58312 1.33325 4.41355 1.40349 4.28852 1.52851C4.1635 1.65354 4.09326 1.82311 4.09326 1.99992V2.66659H20.0933V1.99992Z" fill="black"/>
<path d="M21.4132 4.66667C21.4132 4.48986 21.343 4.32029 21.218 4.19526C21.093 4.07024 20.9234 4 20.7466 4H3.41325C3.23644 4 3.06687 4.07024 2.94184 4.19526C2.81682 4.32029 2.74658 4.48986 2.74658 4.66667V5.33333H21.4132V4.66667Z" fill="black"/>
<path d="M8.54678 17.8599C8.73154 17.9797 8.94659 18.0444 9.16678 18.0465C9.32542 18.0458 9.48214 18.0117 9.62678 17.9465L16.1401 15.0399C16.3415 14.9524 16.5129 14.808 16.6333 14.6244C16.7536 14.4408 16.8178 14.2261 16.8178 14.0065C16.8178 13.787 16.7536 13.5723 16.6333 13.3887C16.5129 13.2051 16.3415 13.0607 16.1401 12.9732L9.62678 10.0665C9.45442 9.99 9.26569 9.95768 9.07768 9.9725C8.88967 9.98733 8.70833 10.0488 8.5501 10.1515C8.39187 10.2541 8.26175 10.3946 8.17154 10.5602C8.08132 10.7258 8.03385 10.9113 8.03345 11.0999V16.9132C8.03379 17.1012 8.08088 17.2862 8.17049 17.4514C8.2601 17.6167 8.38942 17.757 8.54678 17.8599ZM8.96678 11.0999C8.96657 11.0664 8.97506 11.0334 8.99143 11.0042C9.00779 10.975 9.03146 10.9505 9.06011 10.9332C9.09501 10.9236 9.13188 10.9236 9.16678 10.9332C9.19318 10.9278 9.22039 10.9278 9.24678 10.9332L15.7601 13.8332C15.7969 13.8482 15.8281 13.8742 15.8496 13.9076C15.871 13.941 15.8817 13.9802 15.8801 14.0199C15.8813 14.0586 15.8704 14.0968 15.8488 14.129C15.8273 14.1613 15.7963 14.1861 15.7601 14.1999L9.24678 17.1065C9.2184 17.1229 9.18621 17.1316 9.15345 17.1316C9.12068 17.1316 9.08849 17.1229 9.06011 17.1065C9.0323 17.0883 9.00928 17.0637 8.99304 17.0346C8.97679 17.0056 8.96778 16.9731 8.96678 16.9399V11.0999Z" fill="black"/>
</g>
<defs>
<clipPath id="clip0_954_29570">
<rect width="24" height="24" fill="white"/>
</clipPath>
</defs>
</svg>
