<svg width="24" height="24" viewBox="0 0 24 24" fill="none" xmlns="http://www.w3.org/2000/svg">
<g clip-path="url(#clip0_954_29338)">
<path d="M10.3866 3.36667C11.8307 3.36535 13.2428 3.79236 14.4441 4.5937C15.6455 5.39503 16.5822 6.53467 17.1357 7.86846C17.6893 9.20224 17.8348 10.6702 17.5539 12.0867C17.2729 13.5032 16.5782 14.8046 15.5575 15.8262C14.5369 16.8478 13.2362 17.5437 11.8199 17.8259C10.4037 18.1081 8.93555 17.9639 7.60126 17.4116C6.26697 16.8593 5.12647 15.9236 4.32404 14.723C3.52161 13.5224 3.09331 12.1108 3.09331 10.6667C3.10206 8.73444 3.87307 6.88374 5.23875 5.51681C6.60443 4.14988 8.45442 3.37719 10.3866 3.36667ZM10.3866 2C8.67254 2 6.99693 2.50829 5.5717 3.4606C4.14647 4.4129 3.03565 5.76645 2.37969 7.35008C1.72373 8.9337 1.5521 10.6763 1.8865 12.3575C2.22091 14.0386 3.04633 15.5829 4.25838 16.7949C5.47044 18.007 7.01469 18.8324 8.69586 19.1668C10.377 19.5012 12.1196 19.3296 13.7032 18.6736C15.2869 18.0177 16.6404 16.9068 17.5927 15.4816C18.545 14.0564 19.0533 12.3808 19.0533 10.6667C19.0533 8.36812 18.1402 6.16372 16.5149 4.53841C14.8896 2.91309 12.6852 2 10.3866 2Z" fill="black"/>
<path d="M22.8334 22.1937L17.9201 17.2471L16.9734 18.1871L21.8867 23.1337C21.9484 23.1959 22.0218 23.2453 22.1026 23.2791C22.1834 23.3129 22.2701 23.3305 22.3577 23.3308C22.4453 23.3311 22.5321 23.3141 22.6131 23.2809C22.6942 23.2477 22.7679 23.1988 22.8301 23.1371C22.8922 23.0753 22.9416 23.002 22.9754 22.9212C23.0092 22.8404 23.0268 22.7537 23.0271 22.6661C23.0274 22.5785 23.0105 22.4917 22.9772 22.4107C22.944 22.3296 22.8951 22.2559 22.8334 22.1937Z" fill="black"/>
</g>
<defs>
<clipPath id="clip0_954_29338">
<rect width="24" height="24" fill="white"/>
</clipPath>
</defs>
</svg>
