<svg width="24" height="25" viewBox="0 0 24 25" fill="none" xmlns="http://www.w3.org/2000/svg">
<path d="M19.303 5.837C17.9214 5.20257 16.4621 4.75303 14.963 4.5C14.772 4.829 14.56 5.275 14.411 5.625C12.8168 5.39167 11.1972 5.39167 9.60299 5.625C9.45399 5.275 9.22999 4.829 9.04999 4.5C7.54936 4.74939 6.08899 5.19907 4.70799 5.837C1.96099 9.891 1.21799 13.85 1.58999 17.755C3.1997 18.9366 4.99775 19.8373 6.90799 20.419C7.33691 19.8396 7.71689 19.2254 8.04399 18.583C7.41699 18.349 6.82399 18.063 6.24999 17.723C6.39899 17.617 6.54699 17.5 6.68499 17.383C10.145 18.965 13.892 18.965 17.309 17.383C17.458 17.5 17.596 17.617 17.744 17.723C17.171 18.063 16.577 18.349 15.951 18.583C16.2778 19.2254 16.6574 19.8395 17.086 20.419C18.997 19.8391 20.7953 18.9383 22.404 17.755C22.861 13.235 21.682 9.307 19.304 5.837M8.51999 15.346C7.47999 15.346 6.63099 14.401 6.63099 13.245C6.63099 12.089 7.45899 11.143 8.52099 11.143C9.57099 11.143 10.431 12.088 10.409 13.245C10.409 14.401 9.57099 15.346 8.51999 15.346ZM15.494 15.345C14.454 15.345 13.604 14.4 13.604 13.244C13.604 12.088 14.432 11.142 15.494 11.142C16.544 11.142 17.404 12.087 17.383 13.244C17.383 14.4 16.555 15.344 15.493 15.344" fill="black"/>
</svg>
