<svg width="24" height="25" viewBox="0 0 24 25" fill="none" xmlns="http://www.w3.org/2000/svg">
<path d="M12.001 9.5C11.2054 9.5 10.4423 9.81607 9.87968 10.3787C9.31707 10.9413 9.001 11.7044 9.001 12.5C9.001 13.2956 9.31707 14.0587 9.87968 14.6213C10.4423 15.1839 11.2054 15.5 12.001 15.5C12.7966 15.5 13.5597 15.1839 14.1223 14.6213C14.6849 14.0587 15.001 13.2956 15.001 12.5C15.001 11.7044 14.6849 10.9413 14.1223 10.3787C13.5597 9.81607 12.7966 9.5 12.001 9.5ZM12.001 7.5C13.3271 7.5 14.5989 8.02678 15.5365 8.96447C16.4742 9.90215 17.001 11.1739 17.001 12.5C17.001 13.8261 16.4742 15.0979 15.5365 16.0355C14.5989 16.9732 13.3271 17.5 12.001 17.5C10.6749 17.5 9.40315 16.9732 8.46547 16.0355C7.52778 15.0979 7.001 13.8261 7.001 12.5C7.001 11.1739 7.52778 9.90215 8.46547 8.96447C9.40315 8.02678 10.6749 7.5 12.001 7.5ZM18.501 7.25C18.501 7.58152 18.3693 7.89946 18.1349 8.13388C17.9005 8.3683 17.5825 8.5 17.251 8.5C16.9195 8.5 16.6015 8.3683 16.3671 8.13388C16.1327 7.89946 16.001 7.58152 16.001 7.25C16.001 6.91848 16.1327 6.60054 16.3671 6.36612C16.6015 6.1317 16.9195 6 17.251 6C17.5825 6 17.9005 6.1317 18.1349 6.36612C18.3693 6.60054 18.501 6.91848 18.501 7.25ZM12.001 4.5C9.527 4.5 9.123 4.507 7.972 4.558C7.188 4.595 6.662 4.7 6.174 4.89C5.76583 5.04037 5.39672 5.28063 5.094 5.593C4.78127 5.89562 4.54066 6.26474 4.39 6.673C4.2 7.163 4.095 7.688 4.059 8.471C4.007 9.575 4 9.961 4 12.5C4 14.975 4.007 15.378 4.058 16.529C4.095 17.312 4.2 17.839 4.389 18.326C4.559 18.761 4.759 19.074 5.091 19.406C5.428 19.742 5.741 19.943 6.171 20.109C6.665 20.3 7.191 20.406 7.971 20.442C9.075 20.494 9.461 20.5 12 20.5C14.475 20.5 14.878 20.493 16.029 20.442C16.811 20.405 17.337 20.3 17.826 20.111C18.2342 19.9606 18.6033 19.7204 18.906 19.408C19.243 19.072 19.444 18.759 19.61 18.328C19.8 17.836 19.906 17.31 19.942 16.528C19.994 15.425 20 15.038 20 12.5C20 10.026 19.993 9.622 19.942 8.471C19.905 7.689 19.799 7.161 19.61 6.673C19.4596 6.26483 19.2194 5.89572 18.907 5.593C18.6044 5.28027 18.2353 5.03966 17.827 4.889C17.337 4.699 16.811 4.594 16.029 4.558C14.926 4.506 14.54 4.5 12 4.5M12 2.5C14.717 2.5 15.056 2.51 16.123 2.56C17.187 2.61 17.913 2.777 18.55 3.025C19.21 3.279 19.766 3.623 20.322 4.178C20.8307 4.67773 21.2242 5.28247 21.475 5.95C21.722 6.587 21.89 7.313 21.94 8.378C21.987 9.444 22 9.783 22 12.5C22 15.217 21.99 15.556 21.94 16.622C21.89 17.688 21.722 18.412 21.475 19.05C21.2242 19.7175 20.8307 20.3223 20.322 20.822C19.8223 21.3307 19.2175 21.7242 18.55 21.975C17.913 22.222 17.187 22.39 16.123 22.44C15.056 22.487 14.717 22.5 12 22.5C9.283 22.5 8.944 22.49 7.877 22.44C6.813 22.39 6.088 22.222 5.45 21.975C4.78247 21.7242 4.17773 21.3307 3.678 20.822C3.16931 20.3223 2.77582 19.7175 2.525 19.05C2.277 18.413 2.11 17.687 2.06 16.622C2.012 15.556 2 15.217 2 12.5C2 9.783 2.01 9.444 2.06 8.378C2.11 7.312 2.277 6.588 2.525 5.95C2.77582 5.28247 3.16931 4.67773 3.678 4.178C4.17773 3.66931 4.78247 3.27582 5.45 3.025C6.087 2.777 6.812 2.61 7.877 2.56C8.945 2.513 9.284 2.5 12.001 2.5" fill="black"/>
</svg>
