<svg width="24" height="25" viewBox="0 0 24 25" fill="none" xmlns="http://www.w3.org/2000/svg">
<path d="M18.364 16.036L16.95 14.62L18.364 13.206C19.2949 12.2669 19.8159 10.9973 19.813 9.67502C19.8101 8.35274 19.2836 7.08544 18.3486 6.15044C17.4136 5.21544 16.1463 4.68888 14.824 4.68598C13.5017 4.68309 12.2321 5.20409 11.293 6.13499L9.87801 7.54999L8.46401 6.13599L9.87801 4.72199C11.1908 3.40917 12.9714 2.67163 14.828 2.67163C16.6846 2.67163 18.4652 3.40917 19.778 4.72199C21.0908 6.03481 21.8284 7.81538 21.8284 9.67199C21.8284 11.5286 21.0908 13.3092 19.778 14.622L18.364 16.036ZM15.535 18.864L14.121 20.278C12.8082 21.5908 11.0276 22.3283 9.17101 22.3283C7.3144 22.3283 5.53383 21.5908 4.22101 20.278C2.90819 18.9652 2.17065 17.1846 2.17065 15.328C2.17065 13.4714 2.90819 11.6908 4.22101 10.378L5.63601 8.96399L7.05001 10.38L5.63601 11.794C4.71788 12.7356 4.20768 14.0009 4.21592 15.316C4.22416 16.6311 4.75018 17.89 5.68003 18.82C6.60989 19.75 7.8687 20.2762 9.18378 20.2846C10.4989 20.293 11.7643 19.783 12.706 18.865L14.121 17.451L15.535 18.864ZM14.828 8.25699L16.243 9.67199L9.17101 16.742L7.75701 15.328L14.828 8.25699Z" fill="black"/>
</svg>
