<svg width="24" height="25" viewBox="0 0 24 25" fill="none" xmlns="http://www.w3.org/2000/svg">
<path d="M22 12.5C22 18.023 17.523 22.5 12 22.5C6.477 22.5 2 18.023 2 12.5C2 6.977 6.477 2.5 12 2.5C17.523 2.5 22 6.977 22 12.5ZM12.358 9.882C11.386 10.2867 9.44233 11.1243 6.527 12.395C6.053 12.583 5.805 12.767 5.783 12.947C5.745 13.251 6.126 13.371 6.645 13.534L6.863 13.604C7.373 13.77 8.061 13.964 8.418 13.972C8.742 13.9787 9.10333 13.8453 9.502 13.572C12.226 11.732 13.632 10.8023 13.72 10.783C13.783 10.769 13.869 10.751 13.927 10.803C13.986 10.855 13.98 10.953 13.974 10.98C13.936 11.141 12.44 12.532 11.666 13.251C11.4367 13.467 11.209 13.6847 10.983 13.904C10.509 14.361 10.153 14.704 11.003 15.264C11.864 15.832 12.733 16.398 13.573 16.997C13.987 17.293 14.359 17.557 14.819 17.516C15.086 17.491 15.362 17.24 15.502 16.49C15.834 14.72 16.485 10.882 16.635 9.3C16.6437 9.16877 16.638 9.03699 16.618 8.907C16.6062 8.80238 16.5555 8.70602 16.476 8.637C16.356 8.539 16.171 8.519 16.089 8.52C15.713 8.527 15.136 8.727 12.359 9.882" fill="black"/>
</svg>
