<svg width="24" height="25" viewBox="0 0 24 25" fill="none" xmlns="http://www.w3.org/2000/svg">
<path d="M16 8.745V16C15.9997 17.35 15.579 18.6665 14.7964 19.7666C14.0138 20.8666 12.9081 21.6957 11.6328 22.1387C10.3575 22.5817 8.97591 22.6166 7.67988 22.2385C6.38384 21.8605 5.23768 21.0883 4.40054 20.0291C3.56339 18.97 3.07681 17.6764 3.00836 16.3281C2.93991 14.9798 3.29299 13.6436 4.01857 12.5052C4.74414 11.3667 5.80621 10.4824 7.0573 9.975C8.30838 9.46766 9.6864 9.36245 11 9.674V12.837C10.3148 12.512 9.54261 12.4183 8.7996 12.5701C8.05658 12.7218 7.38296 13.1108 6.8801 13.6785C6.37725 14.2461 6.07237 14.9618 6.01135 15.7177C5.95033 16.4736 6.13648 17.2288 6.54177 17.8698C6.94706 18.5108 7.54957 19.0028 8.25863 19.2717C8.96768 19.5407 9.74492 19.5721 10.4734 19.3612C11.2018 19.1503 11.842 18.7085 12.2977 18.1023C12.7534 17.4961 12.9998 16.7584 13 16V2.5H16C16 3.82608 16.5268 5.09785 17.4645 6.03553C18.4022 6.97322 19.6739 7.5 21 7.5V10.5C19.1819 10.5024 17.4177 9.88316 16 8.745Z" fill="black"/>
</svg>
