<svg width="19" height="19" viewBox="0 0 19 19" fill="none" xmlns="http://www.w3.org/2000/svg">
<g clip-path="url(#clip0_954_10673)">
<path d="M17.3375 14.8471L17.1581 14.6888C16.6491 14.235 16.2036 13.7149 15.8334 13.1424C15.4288 12.3522 15.1865 11.489 15.1209 10.6038V7.99653C15.1243 6.60616 14.62 5.26236 13.7026 4.21762C12.7852 3.17289 11.5178 2.49912 10.1386 2.32292V1.64208C10.1386 1.45522 10.0644 1.276 9.93226 1.14387C9.80013 1.01173 9.62091 0.9375 9.43405 0.9375C9.24718 0.9375 9.06797 1.01173 8.93583 1.14387C8.8037 1.276 8.72946 1.45522 8.72946 1.64208V2.33347C7.36265 2.52238 6.11061 3.20022 5.20524 4.24145C4.29987 5.28267 3.80252 6.61673 3.8053 7.99653V10.6038C3.73962 11.489 3.49736 12.3522 3.0928 13.1424C2.7291 13.7136 2.29068 14.2337 1.78919 14.6888L1.60974 14.8471V16.3354H17.3375V14.8471Z" fill="black"/>
<path d="M8.08557 16.8889C8.13185 17.2235 8.29763 17.53 8.55228 17.7518C8.80693 17.9737 9.13326 18.0959 9.47099 18.0959C9.80872 18.0959 10.135 17.9737 10.3897 17.7518C10.6443 17.53 10.8101 17.2235 10.8564 16.8889H8.08557Z" fill="black"/>
</g>
<defs>
<clipPath id="clip0_954_10673">
<rect width="19" height="19" fill="white"/>
</clipPath>
</defs>
</svg>
