<svg width="17" height="17" viewBox="0 0 17 17" fill="none" xmlns="http://www.w3.org/2000/svg">
<g clip-path="url(#clip0_954_10509)">
<path d="M8.49977 1.17969C4.33477 1.17969 0.944214 4.14524 0.944214 7.7908C0.944214 11.4364 4.33477 14.4019 8.49977 14.4019C9.27901 14.401 10.0544 14.293 10.8042 14.0808L13.4156 15.743C13.4869 15.7888 13.5692 15.8145 13.6538 15.8175C13.7385 15.8205 13.8224 15.8007 13.8967 15.7601C13.9711 15.7196 14.0332 15.6598 14.0765 15.587C14.1198 15.5142 14.1427 15.4311 14.1428 15.3464V12.1683C14.7337 11.6015 15.2052 10.9222 15.5296 10.1704C15.854 9.41863 16.0247 8.60955 16.0317 7.7908C16.0553 4.14524 12.6648 1.17969 8.49977 1.17969ZM13.3589 11.6205C13.3115 11.6646 13.2735 11.7179 13.2476 11.7772C13.2216 11.8365 13.208 11.9005 13.2078 11.9652V14.4869L11.1395 13.1694C11.0818 13.1329 11.0169 13.1094 10.9492 13.1004C10.8816 13.0915 10.8128 13.0973 10.7475 13.1175C10.0197 13.3435 9.26189 13.4581 8.49977 13.4575C4.85421 13.4575 1.88866 10.9169 1.88866 7.7908C1.88866 4.66469 4.85421 2.12413 8.49977 2.12413C12.1453 2.12413 15.1109 4.66469 15.1109 7.7908C15.1001 8.51569 14.9388 9.23044 14.6372 9.88971C14.3356 10.549 13.9003 11.1384 13.3589 11.6205Z" fill="black"/>
<path d="M11.8057 7.32031H5.19463C5.06939 7.32031 4.94928 7.37006 4.86072 7.45862C4.77216 7.54718 4.72241 7.66729 4.72241 7.79253C4.72241 7.91778 4.77216 8.03789 4.86072 8.12645C4.94928 8.21501 5.06939 8.26476 5.19463 8.26476H11.8057C11.931 8.26476 12.0511 8.21501 12.1397 8.12645C12.2282 8.03789 12.278 7.91778 12.278 7.79253C12.278 7.66729 12.2282 7.54718 12.1397 7.45862C12.0511 7.37006 11.931 7.32031 11.8057 7.32031Z" fill="black"/>
<path d="M10.2706 9.67969H6.72894C6.6037 9.67969 6.48358 9.72944 6.39502 9.818C6.30647 9.90656 6.25671 10.0267 6.25671 10.1519C6.25671 10.2772 6.30647 10.3973 6.39502 10.4858C6.48358 10.5744 6.6037 10.6241 6.72894 10.6241H10.2706C10.3958 10.6241 10.516 10.5744 10.6045 10.4858C10.6931 10.3973 10.7428 10.2772 10.7428 10.1519C10.7428 10.0267 10.6931 9.90656 10.6045 9.818C10.516 9.72944 10.3958 9.67969 10.2706 9.67969Z" fill="black"/>
<path d="M5.32671 5.90343H11.6734C11.7986 5.90343 11.9187 5.85368 12.0073 5.76512C12.0959 5.67656 12.1456 5.55645 12.1456 5.43121C12.1456 5.30597 12.0959 5.18585 12.0073 5.0973C11.9187 5.00874 11.7986 4.95898 11.6734 4.95898H5.32671C5.20147 4.95898 5.08136 5.00874 4.9928 5.0973C4.90424 5.18585 4.85449 5.30597 4.85449 5.43121C4.85449 5.55645 4.90424 5.67656 4.9928 5.76512C5.08136 5.85368 5.20147 5.90343 5.32671 5.90343Z" fill="black"/>
</g>
<defs>
<clipPath id="clip0_954_10509">
<rect width="17" height="17" fill="white"/>
</clipPath>
</defs>
</svg>
