<svg width="17" height="17" viewBox="0 0 17 17" fill="none" xmlns="http://www.w3.org/2000/svg">
<path fill-rule="evenodd" clip-rule="evenodd" d="M9.41944 13.281C9.53703 13.281 9.64611 13.2173 9.70419 13.1153L12.0743 8.95523C12.3883 8.4037 12.5199 7.76705 12.4504 7.13623L12.2004 4.85965C12.1787 4.66301 12.0911 4.47951 11.9518 4.33905C11.8125 4.19859 11.6297 4.10944 11.4332 4.08615L9.93369 3.90765C8.94377 3.79062 7.94022 3.89267 6.99411 4.20656C6.52661 4.3624 6.15261 4.71656 5.97269 5.17485L4.76569 8.24194C4.73594 8.31749 4.71564 8.39541 4.70478 8.47569C4.68352 8.63235 4.69949 8.79183 4.7514 8.94116C4.80331 9.0905 4.88969 9.2255 5.00354 9.33521C5.11738 9.44491 5.25549 9.52624 5.40664 9.57258C5.5578 9.61892 5.71776 9.62898 5.87353 9.60194L8.2939 9.1819C8.4707 9.15119 8.65231 9.16395 8.82308 9.21907C8.99385 9.27418 9.14865 9.37001 9.27413 9.49828C9.39962 9.62656 9.49202 9.78342 9.54337 9.95536C9.59472 10.1273 9.60349 10.3092 9.5689 10.4852L9.09786 12.89C9.08856 12.9375 9.08988 12.9865 9.10173 13.0334C9.11358 13.0803 9.13567 13.124 9.16641 13.1614C9.19715 13.1988 9.23578 13.2289 9.27952 13.2496C9.32327 13.2702 9.37105 13.281 9.41944 13.281ZM10.6272 13.6416C10.4636 13.9276 10.2038 14.1462 9.89403 14.2585C9.58428 14.3708 9.24471 14.3695 8.93586 14.2547C8.627 14.14 8.36893 13.9193 8.20764 13.632C8.04635 13.3447 7.99232 13.0094 8.05519 12.686L8.52624 10.2805C8.5273 10.2735 8.5273 10.2663 8.52624 10.2593C8.52314 10.2528 8.51908 10.2468 8.51419 10.2416C8.50894 10.2367 8.50296 10.2326 8.49649 10.2295C8.48948 10.2282 8.48231 10.228 8.47524 10.2288L6.05628 10.6489C5.69441 10.7119 5.32229 10.6775 4.97815 10.549C4.63401 10.4206 4.33028 10.2029 4.09817 9.9182C3.86606 9.63351 3.71395 9.29215 3.65748 8.9292C3.60101 8.56625 3.64222 8.19481 3.77686 7.85306L4.98386 4.78598C5.13006 4.41501 5.35584 4.08061 5.64527 3.80635C5.93471 3.53209 6.28077 3.32463 6.65907 3.1986C7.75344 2.83452 8.9144 2.71694 10.0591 2.85294L11.5586 3.03073C11.9936 3.0824 12.3983 3.27993 12.7066 3.5911C13.015 3.90227 13.2088 4.30873 13.2565 4.74419L13.5065 7.02006C13.6003 7.8738 13.4218 8.73533 12.9965 9.48152L10.6272 13.6416Z" fill="black"/>
</svg>
