<svg width="17" height="17" viewBox="0 0 17 17" fill="none" xmlns="http://www.w3.org/2000/svg">
<path fill-rule="evenodd" clip-rule="evenodd" d="M7.58056 3.71898C7.46297 3.71898 7.35389 3.78273 7.29581 3.88473L4.92572 8.04477C4.61175 8.5963 4.4801 9.23295 4.5496 9.86377L4.79964 12.1404C4.82131 12.337 4.90894 12.5205 5.04824 12.661C5.18755 12.8014 5.37032 12.8906 5.56676 12.9139L7.06631 13.0924C8.05623 13.2094 9.05978 13.1073 10.0059 12.7934C10.4734 12.6376 10.8474 12.2834 11.0273 11.8251L12.2343 8.75806C12.2641 8.68251 12.2844 8.60459 12.2952 8.52431C12.3165 8.36765 12.3005 8.20817 12.2486 8.05884C12.1967 7.9095 12.1103 7.7745 11.9965 7.66479C11.8826 7.55509 11.7445 7.47376 11.5934 7.42742C11.4422 7.38108 11.2822 7.37102 11.1265 7.39806L8.7061 7.8181C8.5293 7.84881 8.34769 7.83605 8.17692 7.78093C8.00615 7.72582 7.85135 7.62999 7.72587 7.50172C7.60038 7.37344 7.50798 7.21658 7.45663 7.04464C7.40528 6.8727 7.39651 6.69085 7.4311 6.51477L7.90214 4.10998C7.91144 4.06249 7.91012 4.01353 7.89827 3.96662C7.88642 3.9197 7.86433 3.87599 7.83359 3.83861C7.80285 3.80124 7.76422 3.77113 7.72048 3.75045C7.67673 3.72976 7.62895 3.71902 7.58056 3.71898ZM6.37285 3.35844C6.5364 3.07242 6.79621 2.85377 7.10597 2.74146C7.41572 2.62916 7.75529 2.6305 8.06414 2.74525C8.373 2.86 8.63107 3.08069 8.79236 3.368C8.95365 3.6553 9.00768 3.99055 8.94481 4.31398L8.47376 6.71948C8.4727 6.72652 8.4727 6.73369 8.47376 6.74073C8.47686 6.74721 8.48092 6.75318 8.48581 6.75844C8.49106 6.76333 8.49704 6.76739 8.50351 6.77048C8.51052 6.77178 8.51769 6.77202 8.52476 6.77119L10.9437 6.35114C11.3056 6.28809 11.6777 6.32254 12.0219 6.45095C12.366 6.57937 12.6697 6.79711 12.9018 7.0818C13.1339 7.36648 13.286 7.70785 13.3425 8.0708C13.399 8.43375 13.3578 8.80519 13.2231 9.14694L12.0161 12.214C11.8699 12.585 11.6442 12.9194 11.3547 13.1936C11.0653 13.4679 10.7192 13.6754 10.3409 13.8014C9.24656 14.1655 8.0856 14.2831 6.94093 14.1471L5.44139 13.9693C5.00638 13.9176 4.60171 13.7201 4.29337 13.4089C3.98503 13.0977 3.79121 12.6913 3.74351 12.2558L3.49347 9.97994C3.39969 9.1262 3.5782 8.26467 4.00347 7.51848L6.37285 3.35844Z" fill="black"/>
</svg>
