<svg width="15" height="15" viewBox="0 0 15 15" fill="none" xmlns="http://www.w3.org/2000/svg">
<path d="M7.1875 8.4375C7.70527 8.4375 8.125 8.01777 8.125 7.5C8.125 6.98223 7.70527 6.5625 7.1875 6.5625C6.66973 6.5625 6.25 6.98223 6.25 7.5C6.25 8.01777 6.66973 8.4375 7.1875 8.4375Z" fill="black"/>
<path d="M7.1875 12.8125C7.70527 12.8125 8.125 12.3928 8.125 11.875C8.125 11.3572 7.70527 10.9375 7.1875 10.9375C6.66973 10.9375 6.25 11.3572 6.25 11.875C6.25 12.3928 6.66973 12.8125 7.1875 12.8125Z" fill="black"/>
<path d="M7.1875 4.0625C7.70527 4.0625 8.125 3.64277 8.125 3.125C8.125 2.60723 7.70527 2.1875 7.1875 2.1875C6.66973 2.1875 6.25 2.60723 6.25 3.125C6.25 3.64277 6.66973 4.0625 7.1875 4.0625Z" fill="black"/>
</svg>
