<svg width="10" height="10" viewBox="0 0 10 10" fill="none" xmlns="http://www.w3.org/2000/svg">
<g clip-path="url(#clip0_954_10728)">
<path d="M5.00041 5.62469C4.95902 5.62444 4.91821 5.61495 4.88096 5.59691L0.714295 3.62746C0.666574 3.60503 0.626224 3.56948 0.59796 3.52496C0.569696 3.48045 0.554688 3.42881 0.554688 3.37607C0.554688 3.32334 0.569696 3.2717 0.59796 3.22719C0.626224 3.18267 0.666574 3.14712 0.714295 3.12469L4.88096 1.15524C4.9179 1.1379 4.95821 1.12891 4.99902 1.12891C5.03983 1.12891 5.08013 1.1379 5.11707 1.15524L9.28374 3.12469C9.33146 3.14712 9.37181 3.18267 9.40008 3.22719C9.42834 3.2717 9.44335 3.32334 9.44335 3.37607C9.44335 3.42881 9.42834 3.48045 9.40008 3.52496C9.37181 3.56948 9.33146 3.60503 9.28374 3.62746L5.11707 5.59691C5.08067 5.61455 5.04085 5.62403 5.00041 5.62469ZM1.48374 3.37746L5.00041 5.04413L8.51707 3.37746L5.00041 1.71635L1.48374 3.37746Z" fill="white"/>
<path d="M4.99937 7.26608C4.95798 7.26583 4.91717 7.25634 4.87992 7.2383L0.713254 5.27719C0.679552 5.26212 0.64919 5.24049 0.623944 5.21356C0.598698 5.18663 0.579073 5.15493 0.566217 5.12033C0.553361 5.08572 0.547531 5.0489 0.549069 5.01202C0.550607 4.97514 0.559481 4.93893 0.575173 4.90551C0.590865 4.8721 0.61306 4.84215 0.64046 4.81741C0.667861 4.79267 0.699918 4.77364 0.734757 4.76144C0.769596 4.74923 0.806519 4.74409 0.843367 4.74632C0.880215 4.74855 0.91625 4.7581 0.949365 4.77441L4.99937 6.68274L9.04659 4.76885C9.07997 4.75317 9.11611 4.74421 9.15295 4.74249C9.18979 4.74077 9.2266 4.74633 9.2613 4.75884C9.29599 4.77135 9.32788 4.79057 9.35514 4.8154C9.38241 4.84024 9.40451 4.8702 9.4202 4.90358C9.43589 4.93695 9.44484 4.9731 9.44656 5.00993C9.44828 5.04677 9.44273 5.08359 9.43021 5.11828C9.41771 5.15298 9.39849 5.18487 9.37365 5.21213C9.34882 5.2394 9.31885 5.2615 9.28548 5.27719L5.11881 7.24663C5.08091 7.26181 5.04013 7.26845 4.99937 7.26608Z" fill="white"/>
<path d="M4.99972 8.90699C4.95834 8.90675 4.91753 8.89726 4.88028 8.87921L0.713612 6.90977C0.648333 6.87761 0.598281 6.82112 0.574219 6.75244C0.550156 6.68376 0.554006 6.60838 0.584939 6.54251C0.615872 6.47664 0.671418 6.42554 0.739634 6.4002C0.80785 6.37486 0.883287 6.3773 0.949723 6.40699L4.99972 8.33199L9.04695 6.4181C9.08006 6.40179 9.1161 6.39224 9.15295 6.39001C9.18979 6.38778 9.22672 6.39292 9.26155 6.40513C9.29639 6.41734 9.32845 6.43637 9.35585 6.4611C9.38325 6.48584 9.40545 6.51579 9.42114 6.54921C9.43683 6.58262 9.44571 6.61883 9.44724 6.65571C9.44878 6.6926 9.44295 6.72942 9.43009 6.76402C9.41724 6.79863 9.39761 6.83032 9.37237 6.85725C9.34712 6.88419 9.31676 6.90582 9.28306 6.92088L5.11917 8.88755C5.08127 8.90273 5.04048 8.90937 4.99972 8.90699Z" fill="white"/>
</g>
<defs>
<clipPath id="clip0_954_10728">
<rect width="10" height="10" fill="white"/>
</clipPath>
</defs>
</svg>
