<svg width="17" height="17" viewBox="0 0 17 17" fill="none" xmlns="http://www.w3.org/2000/svg">
<g clip-path="url(#clip0_954_11682)">
<path d="M9.8316 7.23107L4.93938 4.25135C4.72215 4.12857 4.41521 4.42607 4.53326 4.64801L7.43743 9.63468L12.4241 12.5388C12.4804 12.5593 12.5414 12.563 12.5998 12.5497C12.6582 12.5363 12.7115 12.5065 12.7533 12.4636C12.7952 12.4208 12.8238 12.3668 12.8357 12.3081C12.8477 12.2494 12.8425 12.1885 12.8208 12.1327L9.8316 7.23107ZM7.94271 9.11996L9.35938 7.70329L11.508 11.2166L7.94271 9.11996Z" fill="black"/>
<path d="M8.4999 0.945312C7.00555 0.945313 5.54476 1.38844 4.30225 2.21865C3.05975 3.04887 2.09133 4.22888 1.51947 5.60948C0.94761 6.99008 0.797984 8.50925 1.08952 9.97488C1.38105 11.4405 2.10065 12.7868 3.15731 13.8435C4.21397 14.9001 5.56025 15.6197 7.02588 15.9112C8.49151 16.2028 10.0107 16.0532 11.3913 15.4813C12.7719 14.9094 13.9519 13.941 14.7821 12.6985C15.6123 11.456 16.0555 9.99522 16.0555 8.50087C16.0555 6.49701 15.2594 4.57523 13.8425 3.15828C12.4255 1.74134 10.5038 0.945313 8.4999 0.945312ZM8.97212 15.0884V13.9456H8.02767V15.0884C6.44384 14.9734 4.95429 14.2922 3.83141 13.1694C2.70852 12.0465 2.02733 10.5569 1.9124 8.97309H3.05517V8.02865H1.9124C2.02733 6.44481 2.70852 4.95526 3.83141 3.83238C4.95429 2.70949 6.44384 2.0283 8.02767 1.91337V3.05615H8.97212V1.91337C10.556 2.0283 12.0455 2.70949 13.1684 3.83238C14.2913 4.95526 14.9725 6.44481 15.0874 8.02865H13.9446V8.97309H15.0874C14.9725 10.5569 14.2913 12.0465 13.1684 13.1694C12.0455 14.2922 10.556 14.9734 8.97212 15.0884Z" fill="black"/>
</g>
<defs>
<clipPath id="clip0_954_11682">
<rect width="17" height="17" fill="white"/>
</clipPath>
</defs>
</svg>
