<svg width="16" height="19" viewBox="0 0 16 19" fill="none" xmlns="http://www.w3.org/2000/svg">
<g clip-path="url(#clip0_954_11715)">
<path d="M12.9004 10.0748C12.9271 12.9447 15.4181 13.8997 15.4456 13.9119C15.4245 13.9792 15.0476 15.2729 14.1333 16.6091C13.3429 17.7643 12.5225 18.9153 11.2302 18.9391C9.96055 18.9625 9.5522 18.1862 8.10048 18.1862C6.64918 18.1862 6.19553 18.9153 4.99352 18.9625C3.74616 19.0098 2.79628 17.7134 1.99936 16.5623C0.370793 14.208 -0.873737 9.90931 0.797358 7.00768C1.62751 5.5667 3.11114 4.65428 4.72137 4.63087C5.94624 4.60753 7.1024 5.45493 7.85118 5.45493C8.59948 5.45493 10.0045 4.43587 11.4815 4.58551C12.0997 4.61127 13.8354 4.83523 14.9499 6.46657C14.86 6.52225 12.8789 7.67558 12.9004 10.0749M10.5141 3.02788C11.1764 2.22626 11.6221 1.11038 11.5005 0C10.5459 0.0383619 9.39163 0.636108 8.70691 1.43724C8.0933 2.14676 7.55593 3.2823 7.70093 4.37066C8.76493 4.453 9.85179 3.82998 10.5141 3.02788Z" fill="white"/>
</g>
<defs>
<clipPath id="clip0_954_11715">
<rect width="15.45" height="19" fill="white"/>
</clipPath>
</defs>
</svg>
