<svg width="19" height="19" viewBox="0 0 19 19" fill="none" xmlns="http://www.w3.org/2000/svg">
<g clip-path="url(#clip0_954_11724)">
<path d="M18.5586 9.67772C18.5586 8.8993 18.4954 8.33126 18.3587 7.74219H9.46992V11.2556H14.6875C14.5823 12.1287 14.0143 13.4436 12.7519 14.3272L12.7342 14.4448L15.5447 16.6221L15.7394 16.6415C17.5277 14.99 18.5586 12.56 18.5586 9.67772Z" fill="#4285F4"/>
<path d="M9.46992 18.9348C12.0261 18.9348 14.172 18.0932 15.7394 16.6416L12.7519 14.3273C11.9525 14.8848 10.8795 15.274 9.46992 15.274C6.96635 15.274 4.84147 13.6225 4.084 11.3398L3.97298 11.3493L1.0506 13.6109L1.01239 13.7172C2.56923 16.8098 5.7671 18.9348 9.46992 18.9348Z" fill="#34A853"/>
<path d="M4.08401 11.3402C3.88415 10.7511 3.76848 10.1199 3.76848 9.46776C3.76848 8.81552 3.88415 8.18439 4.07349 7.59532L4.0682 7.46986L1.1092 5.17188L1.01239 5.21792C0.370743 6.5013 0.00256348 7.94247 0.00256348 9.46776C0.00256348 10.9931 0.370743 12.4342 1.01239 13.7175L4.08401 11.3402Z" fill="#FBBC05"/>
<path d="M9.46992 3.66069C11.2477 3.66069 12.4468 4.4286 13.1306 5.07032L15.8025 2.46152C14.1615 0.936221 12.0261 0 9.46992 0C5.7671 0 2.56923 2.12488 1.01239 5.21753L4.07349 7.59492C4.84147 5.31224 6.96635 3.66069 9.46992 3.66069Z" fill="#EB4335"/>
</g>
<defs>
<clipPath id="clip0_954_11724">
<rect width="18.57" height="19" fill="white"/>
</clipPath>
</defs>
</svg>
