<svg width="24" height="24" viewBox="0 0 24 24" fill="none" xmlns="http://www.w3.org/2000/svg">
<g clip-path="url(#clip0_954_29585)">
<path d="M20.5333 1.52659C20.5074 1.46874 20.4653 1.41966 20.412 1.38533C20.3588 1.351 20.2967 1.33291 20.2333 1.33326H10.9466C10.8909 1.33335 10.836 1.34744 10.7871 1.37422C10.7382 1.40101 10.6968 1.43965 10.6666 1.48659L3.52663 12.8199C3.49226 12.8693 3.47218 12.9272 3.4686 12.9872C3.46502 13.0472 3.47808 13.1071 3.50635 13.1602C3.53461 13.2132 3.57698 13.2575 3.62879 13.288C3.6806 13.3186 3.73983 13.3342 3.79997 13.3333H8.9133L4.39997 22.1666C4.37406 22.2191 4.36188 22.2774 4.36457 22.3359C4.36726 22.3944 4.38473 22.4513 4.41536 22.5012C4.44598 22.5511 4.48876 22.5925 4.53969 22.6214C4.59063 22.6503 4.64806 22.6659 4.70663 22.6666H6.70663C6.7529 22.6669 6.79873 22.6576 6.84119 22.6392C6.88366 22.6209 6.92184 22.5938 6.9533 22.5599L18.6666 9.89992C18.7131 9.85253 18.7444 9.79232 18.7565 9.72703C18.7685 9.66173 18.7608 9.59432 18.7343 9.53344C18.7078 9.47255 18.6637 9.42097 18.6077 9.38531C18.5517 9.34964 18.4863 9.33152 18.42 9.33326H13.9266L20.48 1.87992C20.5222 1.83257 20.5498 1.77394 20.5592 1.7112C20.5687 1.64845 20.5597 1.5843 20.5333 1.52659Z" fill="black"/>
</g>
<defs>
<clipPath id="clip0_954_29585">
<rect width="24" height="24" fill="white"/>
</clipPath>
</defs>
</svg>
