<svg width="24" height="24" viewBox="0 0 24 24" fill="none" xmlns="http://www.w3.org/2000/svg">
<g clip-path="url(#clip0_954_29576)">
<path d="M21.4133 6.66675H2.58659C2.25418 6.66675 1.93539 6.7988 1.70034 7.03384C1.4653 7.26889 1.33325 7.58768 1.33325 7.92008V20.0801C1.33325 20.4125 1.4653 20.7313 1.70034 20.9663C1.93539 21.2014 2.25418 21.3334 2.58659 21.3334H21.4133C21.7457 21.3334 22.0644 21.2014 22.2995 20.9663C22.5345 20.7313 22.6666 20.4125 22.6666 20.0801V7.92008C22.6666 7.58768 22.5345 7.26889 22.2995 7.03384C22.0644 6.7988 21.7457 6.66675 21.4133 6.66675ZM16.1199 14.5534L9.60659 17.4601C9.50517 17.5057 9.39395 17.5252 9.28307 17.5168C9.17219 17.5084 9.06517 17.4725 8.97174 17.4122C8.87831 17.3519 8.80145 17.2692 8.74816 17.1716C8.69486 17.074 8.66682 16.9646 8.66659 16.8534V11.0401C8.66682 10.9289 8.69486 10.8195 8.74816 10.7219C8.80145 10.6243 8.87831 10.5416 8.97174 10.4813C9.06517 10.421 9.17219 10.3851 9.28307 10.3767C9.39395 10.3683 9.50517 10.3878 9.60659 10.4334L16.1199 13.3334C16.2382 13.3856 16.3388 13.471 16.4094 13.5793C16.48 13.6876 16.5176 13.8141 16.5176 13.9434C16.5176 14.0727 16.48 14.1992 16.4094 14.3075C16.3388 14.4158 16.2382 14.5013 16.1199 14.5534Z" fill="black"/>
<path d="M20.0933 1.99992C20.0933 1.82311 20.023 1.65354 19.898 1.52851C19.773 1.40349 19.6034 1.33325 19.4266 1.33325H4.75993C4.58312 1.33325 4.41355 1.40349 4.28852 1.52851C4.1635 1.65354 4.09326 1.82311 4.09326 1.99992V2.66659H20.0933V1.99992Z" fill="black"/>
<path d="M21.4132 4.66667C21.4132 4.48986 21.343 4.32029 21.218 4.19526C21.093 4.07024 20.9234 4 20.7466 4H3.41325C3.23644 4 3.06687 4.07024 2.94184 4.19526C2.81682 4.32029 2.74658 4.48986 2.74658 4.66667V5.33333H21.4132V4.66667Z" fill="black"/>
</g>
<defs>
<clipPath id="clip0_954_29576">
<rect width="24" height="24" fill="white"/>
</clipPath>
</defs>
</svg>
