<svg width="24" height="24" viewBox="0 0 24 24" fill="none" xmlns="http://www.w3.org/2000/svg">
<g clip-path="url(#clip0_954_10823)">
<path d="M20.0001 11.332H12.6668V3.9987C12.6668 3.82189 12.5965 3.65232 12.4715 3.52729C12.3465 3.40227 12.1769 3.33203 12.0001 3.33203C11.8233 3.33203 11.6537 3.40227 11.5287 3.52729C11.4037 3.65232 11.3334 3.82189 11.3334 3.9987V11.332H4.00011C3.8233 11.332 3.65373 11.4023 3.52871 11.5273C3.40368 11.6523 3.33344 11.8219 3.33344 11.9987C3.33015 12.0853 3.34548 12.1717 3.37837 12.2519C3.41127 12.3321 3.46099 12.4044 3.52416 12.4638C3.58734 12.5231 3.66251 12.5683 3.74461 12.5962C3.82671 12.624 3.91384 12.634 4.00011 12.6254H11.3334V19.9987C11.3334 20.1755 11.4037 20.3451 11.5287 20.4701C11.6537 20.5951 11.8233 20.6654 12.0001 20.6654C12.1769 20.6654 12.3465 20.5951 12.4715 20.4701C12.5965 20.3451 12.6668 20.1755 12.6668 19.9987V12.6654H20.0001C20.1769 12.6654 20.3465 12.5951 20.4715 12.4701C20.5965 12.3451 20.6668 12.1755 20.6668 11.9987C20.6668 11.8219 20.5965 11.6523 20.4715 11.5273C20.3465 11.4023 20.1769 11.332 20.0001 11.332Z" fill="black"/>
</g>
<defs>
<clipPath id="clip0_954_10823">
<rect width="24" height="24" fill="white"/>
</clipPath>
</defs>
</svg>
