<svg width="17" height="17" viewBox="0 0 17 17" fill="none" xmlns="http://www.w3.org/2000/svg">
<g clip-path="url(#clip0_954_11575)">
<path d="M14.639 9.91602H6.13897C6.01373 9.91602 5.89362 9.96577 5.80506 10.0543C5.7165 10.1429 5.66675 10.263 5.66675 10.3882C5.66675 10.5135 5.7165 10.6336 5.80506 10.7221C5.89362 10.8107 6.01373 10.8605 6.13897 10.8605H14.639C14.7642 10.8605 14.8843 10.8107 14.9729 10.7221C15.0614 10.6336 15.1112 10.5135 15.1112 10.3882C15.1112 10.263 15.0614 10.1429 14.9729 10.0543C14.8843 9.96577 14.7642 9.91602 14.639 9.91602Z" fill="black"/>
<path d="M5.66675 7.55621C5.66675 7.68145 5.7165 7.80156 5.80506 7.89012C5.89362 7.97868 6.01373 8.02843 6.13897 8.02843H14.639C14.7642 8.02843 14.8843 7.97868 14.9729 7.89012C15.0614 7.80156 15.1112 7.68145 15.1112 7.55621C15.1112 7.43097 15.0614 7.31085 14.9729 7.2223C14.8843 7.13374 14.7642 7.08398 14.639 7.08398H6.13897C6.01373 7.08398 5.89362 7.13374 5.80506 7.2223C5.7165 7.31085 5.66675 7.43097 5.66675 7.55621Z" fill="black"/>
<path d="M12.7501 12.75H6.13897C6.01373 12.75 5.89362 12.7998 5.80506 12.8883C5.7165 12.9769 5.66675 13.097 5.66675 13.2222C5.66675 13.3475 5.7165 13.4676 5.80506 13.5561C5.89362 13.6447 6.01373 13.6944 6.13897 13.6944H12.7501C12.8753 13.6944 12.9954 13.6447 13.084 13.5561C13.1726 13.4676 13.2223 13.3475 13.2223 13.2222C13.2223 13.097 13.1726 12.9769 13.084 12.8883C12.9954 12.7998 12.8753 12.75 12.7501 12.75Z" fill="black"/>
<path d="M7.50393 4.25131C7.50393 4.12607 7.45418 4.00596 7.36562 3.9174C7.27706 3.82884 7.15695 3.77909 7.03171 3.77909H4.72254V1.51714C4.72254 1.3919 4.67279 1.27179 4.58423 1.18323C4.49567 1.09467 4.37556 1.04492 4.25032 1.04492C4.12508 1.04492 4.00497 1.09467 3.91641 1.18323C3.82785 1.27179 3.7781 1.3919 3.7781 1.51714V3.77909H1.36504C1.2398 3.77909 1.11969 3.82884 1.03113 3.9174C0.942574 4.00596 0.892822 4.12607 0.892822 4.25131C0.892822 4.37655 0.942574 4.49666 1.03113 4.58522C1.11969 4.67378 1.2398 4.72353 1.36504 4.72353H3.7781V7.18381C3.7781 7.30905 3.82785 7.42916 3.91641 7.51772C4.00497 7.60628 4.12508 7.65603 4.25032 7.65603C4.37556 7.65603 4.49567 7.60628 4.58423 7.51772C4.67279 7.42916 4.72254 7.30905 4.72254 7.18381V4.72353H7.03171C7.15695 4.72353 7.27706 4.67378 7.36562 4.58522C7.45418 4.49666 7.50393 4.37655 7.50393 4.25131Z" fill="black"/>
</g>
<defs>
<clipPath id="clip0_954_11575">
<rect width="17" height="17" fill="white"/>
</clipPath>
</defs>
</svg>
