<svg width="17" height="17" viewBox="0 0 17 17" fill="none" xmlns="http://www.w3.org/2000/svg">
<path fill-rule="evenodd" clip-rule="evenodd" d="M9.41957 13.281C9.53715 13.281 9.64623 13.2173 9.70432 13.1153L12.0744 8.95523C12.3884 8.4037 12.52 7.76705 12.4505 7.13623L12.2005 4.85965C12.1788 4.66301 12.0912 4.47951 11.9519 4.33905C11.8126 4.19859 11.6298 4.10944 11.4334 4.08615L9.93382 3.90765C8.94389 3.79062 7.94034 3.89267 6.99423 4.20656C6.52673 4.3624 6.15273 4.71656 5.97282 5.17485L4.76582 8.24194C4.73607 8.31749 4.71576 8.39541 4.7049 8.47569C4.68364 8.63235 4.69961 8.79183 4.75152 8.94116C4.80343 9.0905 4.88981 9.2255 5.00366 9.33521C5.1175 9.44491 5.25561 9.52624 5.40677 9.57258C5.55792 9.61892 5.71788 9.62898 5.87365 9.60194L8.29402 9.1819C8.47082 9.15119 8.65243 9.16395 8.8232 9.21907C8.99397 9.27418 9.14877 9.37001 9.27425 9.49828C9.39974 9.62656 9.49214 9.78342 9.54349 9.95536C9.59485 10.1273 9.60361 10.3092 9.56902 10.4852L9.09798 12.89C9.08868 12.9375 9.09 12.9865 9.10185 13.0334C9.11371 13.0803 9.13579 13.124 9.16653 13.1614C9.19727 13.1988 9.2359 13.2289 9.27965 13.2496C9.32339 13.2702 9.37118 13.281 9.41957 13.281ZM10.6273 13.6416C10.4637 13.9276 10.2039 14.1462 9.89416 14.2585C9.5844 14.3708 9.24484 14.3695 8.93598 14.2547C8.62712 14.14 8.36905 13.9193 8.20776 13.632C8.04647 13.3447 7.99245 13.0094 8.05532 12.686L8.52636 10.2805C8.52743 10.2735 8.52743 10.2663 8.52636 10.2593C8.52326 10.2528 8.5192 10.2468 8.51432 10.2416C8.50906 10.2367 8.50309 10.2326 8.49661 10.2295C8.4896 10.2282 8.48244 10.228 8.47536 10.2288L6.0564 10.6489C5.69454 10.7119 5.32241 10.6775 4.97827 10.549C4.63413 10.4206 4.3304 10.2029 4.09829 9.9182C3.86618 9.63351 3.71408 9.29215 3.65761 8.9292C3.60114 8.56625 3.64234 8.19481 3.77698 7.85306L4.98398 4.78598C5.13018 4.41501 5.35596 4.08061 5.6454 3.80635C5.93483 3.53209 6.28089 3.32463 6.65919 3.1986C7.75357 2.83452 8.91453 2.71694 10.0592 2.85294L11.5587 3.03073C11.9937 3.0824 12.3984 3.27993 12.7067 3.5911C13.0151 3.90227 13.2089 4.30873 13.2566 4.74419L13.5066 7.02006C13.6004 7.8738 13.4219 8.73533 12.9966 9.48152L10.6273 13.6416Z" fill="black"/>
</svg>
