<svg width="17" height="17" viewBox="0 0 17 17" fill="none" xmlns="http://www.w3.org/2000/svg">
<path fill-rule="evenodd" clip-rule="evenodd" d="M7.58043 3.71898C7.46285 3.71898 7.35377 3.78273 7.29568 3.88473L4.9256 8.04477C4.61162 8.5963 4.47998 9.23295 4.54948 9.86377L4.79952 12.1404C4.82119 12.337 4.90882 12.5205 5.04812 12.661C5.18742 12.8014 5.37019 12.8906 5.56664 12.9139L7.06618 13.0924C8.05611 13.2094 9.05966 13.1073 10.0058 12.7934C10.4733 12.6376 10.8473 12.2834 11.0272 11.8251L12.2342 8.75806C12.2639 8.68251 12.2842 8.60459 12.2951 8.52431C12.3164 8.36765 12.3004 8.20817 12.2485 8.05884C12.1966 7.9095 12.1102 7.7745 11.9963 7.66479C11.8825 7.55509 11.7444 7.47376 11.5932 7.42742C11.4421 7.38108 11.2821 7.37102 11.1264 7.39806L8.70598 7.8181C8.52918 7.84881 8.34757 7.83605 8.1768 7.78093C8.00603 7.72582 7.85123 7.62999 7.72575 7.50172C7.60026 7.37344 7.50786 7.21658 7.45651 7.04464C7.40515 6.8727 7.39639 6.69085 7.43098 6.51477L7.90202 4.10998C7.91132 4.06249 7.91 4.01353 7.89815 3.96662C7.88629 3.9197 7.86421 3.87599 7.83347 3.83861C7.80273 3.80124 7.7641 3.77113 7.72036 3.75045C7.67661 3.72976 7.62882 3.71902 7.58043 3.71898ZM6.37273 3.35844C6.53628 3.07242 6.79609 2.85377 7.10584 2.74146C7.4156 2.62916 7.75516 2.6305 8.06402 2.74525C8.37288 2.86 8.63095 3.08069 8.79224 3.368C8.95353 3.6553 9.00755 3.99055 8.94468 4.31398L8.47364 6.71948C8.47257 6.72652 8.47257 6.73369 8.47364 6.74073C8.47674 6.74721 8.4808 6.75318 8.48568 6.75844C8.49094 6.76333 8.49691 6.76739 8.50339 6.77048C8.5104 6.77178 8.51756 6.77202 8.52464 6.77119L10.9436 6.35114C11.3055 6.28809 11.6776 6.32254 12.0217 6.45095C12.3659 6.57937 12.6696 6.79711 12.9017 7.0818C13.1338 7.36648 13.2859 7.70785 13.3424 8.0708C13.3989 8.43375 13.3577 8.80519 13.223 9.14694L12.016 12.214C11.8698 12.585 11.644 12.9194 11.3546 13.1936C11.0652 13.4679 10.7191 13.6754 10.3408 13.8014C9.24643 14.1655 8.08548 14.2831 6.94081 14.1471L5.44127 13.9693C5.00626 13.9176 4.60159 13.7201 4.29325 13.4089C3.98491 13.0977 3.79109 12.6913 3.74339 12.2558L3.49335 9.97994C3.39957 9.1262 3.57807 8.26467 4.00335 7.51848L6.37273 3.35844Z" fill="black"/>
</svg>
