<svg width="17" height="17" viewBox="0 0 17 17" fill="none" xmlns="http://www.w3.org/2000/svg">
<g clip-path="url(#clip0_954_11581)">
<path d="M2.83331 16.0564C2.70807 16.0564 2.58795 16.0067 2.49939 15.9181C2.41084 15.8296 2.36108 15.7094 2.36108 15.5842V1.41753C2.36108 1.29229 2.41084 1.17218 2.49939 1.08362C2.58795 0.995064 2.70807 0.945313 2.83331 0.945312C2.95855 0.945313 3.07866 0.995064 3.16722 1.08362C3.25578 1.17218 3.30553 1.29229 3.30553 1.41753V15.5842C3.30553 15.7094 3.25578 15.8296 3.16722 15.9181C3.07866 16.0067 2.95855 16.0564 2.83331 16.0564Z" fill="black"/>
<path d="M14.4264 1.80386C14.3546 1.76241 14.2732 1.74059 14.1903 1.74059C14.1074 1.74059 14.026 1.76241 13.9542 1.80386C13.0387 2.18867 12.0522 2.37536 11.0594 2.35163C10.2041 2.28919 9.37112 2.04958 8.61333 1.64802C7.88151 1.26045 7.07785 1.02739 6.25222 0.9633C5.56599 0.956049 4.88523 1.0861 4.25 1.3458V2.39886C4.86523 2.06223 5.55565 1.88678 6.25694 1.88886C6.95146 1.95751 7.62552 2.16294 8.24028 2.4933C9.11846 2.95252 10.0843 3.21973 11.0736 3.27719C11.9617 3.27993 12.8451 3.1494 13.6944 2.88997V8.94858C12.8487 9.24838 11.9567 9.39703 11.0594 9.38774C10.2041 9.3253 9.37112 9.08569 8.61333 8.68413C7.88151 8.29656 7.07785 8.0635 6.25222 7.99941C5.56471 7.99815 4.8839 8.13463 4.25 8.4008V9.44441C4.86523 9.10779 5.55565 8.93234 6.25694 8.93441C6.95146 9.00306 7.62552 9.20849 8.24028 9.53886C9.11846 9.99808 10.0843 10.2653 11.0736 10.3227C12.2091 10.3462 13.3363 10.1256 14.3792 9.6758C14.457 9.63656 14.5225 9.57652 14.5684 9.50234C14.6142 9.42815 14.6386 9.34273 14.6389 9.25552V2.20524C14.6401 2.12587 14.6212 2.04748 14.5841 1.97733C14.5469 1.90717 14.4927 1.84751 14.4264 1.80386Z" fill="black"/>
</g>
<defs>
<clipPath id="clip0_954_11581">
<rect width="17" height="17" fill="white"/>
</clipPath>
</defs>
</svg>
