<svg width="17" height="17" viewBox="0 0 17 17" fill="none" xmlns="http://www.w3.org/2000/svg">
<g clip-path="url(#clip0_954_11572)">
<path d="M13.0002 11.333C12.6822 11.3343 12.3676 11.3997 12.0755 11.5255C11.7834 11.6513 11.5197 11.8348 11.3002 12.065L5.54383 9.18443C5.68543 8.75506 5.68543 8.29158 5.54383 7.86221L11.3097 4.92971C11.7227 5.36492 12.2827 5.63103 12.881 5.67632C13.4793 5.7216 14.073 5.54283 14.5468 5.17474C15.0206 4.80665 15.3406 4.27555 15.4446 3.68466C15.5487 3.09377 15.4293 2.4853 15.1097 1.97753C14.7901 1.46976 14.2931 1.09896 13.7153 0.937194C13.1376 0.77543 12.5203 0.834264 11.9835 1.10226C11.4467 1.37025 11.0287 1.82826 10.8108 2.38727C10.5929 2.94627 10.5906 3.56633 10.8044 4.12693L5.09522 7.0311C4.78688 6.654 4.36946 6.3815 3.90017 6.25095C3.43089 6.1204 2.93271 6.13819 2.47393 6.30188C2.01515 6.46556 1.61822 6.76714 1.33756 7.16526C1.05691 7.56339 0.90625 8.03857 0.90625 8.52568C0.90625 9.01279 1.05691 9.48797 1.33756 9.8861C1.61822 10.2842 2.01515 10.5858 2.47393 10.7495C2.93271 10.9132 3.43089 10.931 3.90017 10.8004C4.36946 10.6699 4.78688 10.3974 5.09522 10.0203L10.7902 12.8867C10.6937 13.1449 10.6441 13.4184 10.6438 13.6942C10.6438 14.1611 10.7823 14.6176 11.0417 15.0059C11.3012 15.3942 11.6699 15.6968 12.1014 15.8755C12.5328 16.0542 13.0076 16.101 13.4656 16.0099C13.9236 15.9188 14.3443 15.6939 14.6745 15.3637C15.0047 15.0335 15.2296 14.6128 15.3207 14.1548C15.4118 13.6968 15.365 13.222 15.1863 12.7906C15.0076 12.3592 14.705 11.9904 14.3167 11.731C13.9284 11.4715 13.4719 11.333 13.0049 11.333H13.0002ZM13.0002 1.8886C13.2804 1.8886 13.5543 1.97168 13.7873 2.12735C14.0202 2.28301 14.2018 2.50427 14.309 2.76313C14.4163 3.02199 14.4443 3.30684 14.3897 3.58164C14.335 3.85645 14.2001 4.10887 14.002 4.307C13.8038 4.50512 13.5514 4.64005 13.2766 4.69471C13.0018 4.74937 12.7169 4.72132 12.4581 4.61409C12.1992 4.50687 11.978 4.32529 11.8223 4.09232C11.6666 3.85935 11.5836 3.58545 11.5836 3.30526C11.5836 2.92954 11.7328 2.56921 11.9985 2.30353C12.2642 2.03785 12.6245 1.8886 13.0002 1.8886ZM3.3055 9.91638C3.02531 9.91638 2.75141 9.83329 2.51844 9.67762C2.28547 9.52196 2.10389 9.30071 1.99667 9.04184C1.88944 8.78298 1.86139 8.49814 1.91605 8.22333C1.97071 7.94852 2.10564 7.6961 2.30376 7.49797C2.50189 7.29985 2.75431 7.16493 3.02912 7.11026C3.30393 7.0556 3.58877 7.08365 3.84763 7.19088C4.10649 7.2981 4.32775 7.47968 4.48341 7.71265C4.63908 7.94562 4.72216 8.21952 4.72216 8.49971C4.72216 8.87543 4.57291 9.23577 4.30723 9.50144C4.04156 9.76712 3.68122 9.91638 3.3055 9.91638ZM13.0002 15.1108C12.72 15.1108 12.4461 15.0277 12.2132 14.8721C11.9802 14.7164 11.7986 14.4952 11.6914 14.2363C11.5842 13.9774 11.5561 13.6926 11.6108 13.4178C11.6654 13.143 11.8004 12.8905 11.9985 12.6924C12.1966 12.4943 12.449 12.3594 12.7238 12.3047C12.9986 12.25 13.2835 12.2781 13.5424 12.3853C13.8012 12.4925 14.0225 12.6741 14.1781 12.9071C14.3338 13.1401 14.4169 13.414 14.4169 13.6942C14.4169 14.0699 14.2676 14.4302 14.002 14.6959C13.7363 14.9616 13.3759 15.1108 13.0002 15.1108Z" fill="black"/>
</g>
<defs>
<clipPath id="clip0_954_11572">
<rect width="17" height="17" fill="white"/>
</clipPath>
</defs>
</svg>
