<svg width="19" height="19" viewBox="0 0 19 19" fill="none" xmlns="http://www.w3.org/2000/svg">
<g clip-path="url(#clip0_954_10678)">
<path d="M3.42001 7.11514L9.50001 13.4062L15.58 7.11514C15.7452 6.94367 15.8355 6.71361 15.831 6.47557C15.8266 6.23753 15.7277 6.011 15.5563 5.84583C15.3848 5.68066 15.1547 5.59037 14.9167 5.59483C14.6787 5.59928 14.4521 5.69811 14.287 5.86958L9.50001 10.8254L4.70779 5.86958C4.54262 5.69811 4.3161 5.59928 4.07806 5.59483C3.84002 5.59037 3.60996 5.68066 3.43849 5.84583C3.26702 6.011 3.16818 6.23753 3.16373 6.47557C3.15928 6.71361 3.24957 6.94367 3.41474 7.11514H3.42001Z" fill="black"/>
</g>
<defs>
<clipPath id="clip0_954_10678">
<rect width="19" height="19" fill="white" transform="matrix(-1 0 0 -1 19 19)"/>
</clipPath>
</defs>
</svg>
