<svg width="17" height="17" viewBox="0 0 17 17" fill="none" xmlns="http://www.w3.org/2000/svg">
<g clip-path="url(#clip0_954_10286)">
<path d="M15.111 2.36133H1.88878C1.6383 2.36133 1.39807 2.46083 1.22096 2.63795C1.04384 2.81507 0.944336 3.05529 0.944336 3.30577V13.6947C0.944336 13.9451 1.04384 14.1854 1.22096 14.3625C1.39807 14.5396 1.6383 14.6391 1.88878 14.6391H15.111C15.3615 14.6391 15.6017 14.5396 15.7788 14.3625C15.9559 14.1854 16.0554 13.9451 16.0554 13.6947V3.30577C16.0554 3.05529 15.9559 2.81507 15.7788 2.63795C15.6017 2.46083 15.3615 2.36133 15.111 2.36133ZM1.88878 13.6947V3.30577H15.111V13.6947H1.88878Z" fill="black"/>
<path d="M7.37637 7.18776L4.53454 11.3178L2.62109 9.62537L3.12165 9.05965L4.3957 10.1864L7.38298 5.8457L10.5705 10.575L13.7599 6.36043L14.3624 6.81659L10.5346 11.8736L7.37637 7.18776Z" fill="black"/>
</g>
<defs>
<clipPath id="clip0_954_10286">
<rect width="17" height="17" fill="white"/>
</clipPath>
</defs>
</svg>
