<svg width="17" height="17" viewBox="0 0 17 17" fill="none" xmlns="http://www.w3.org/2000/svg">
<g clip-path="url(#clip0_954_10257)">
<path d="M15.111 2.83301H1.88878C1.6383 2.83301 1.39807 2.93251 1.22096 3.10963C1.04384 3.28675 0.944336 3.52697 0.944336 3.77745V13.2219C0.944336 13.4724 1.04384 13.7126 1.22096 13.8897C1.39807 14.0668 1.6383 14.1663 1.88878 14.1663H15.111C15.3615 14.1663 15.6017 14.0668 15.7788 13.8897C15.9559 13.7126 16.0554 13.4724 16.0554 13.2219V3.77745C16.0554 3.52697 15.9559 3.28675 15.7788 3.10963C15.6017 2.93251 15.3615 2.83301 15.111 2.83301ZM14.3838 13.2219H2.67267L5.97822 9.80301L5.29822 9.14662L1.88878 12.6741V4.49523L7.7585 10.3366C7.93546 10.5125 8.17483 10.6113 8.42434 10.6113C8.67384 10.6113 8.91322 10.5125 9.09017 10.3366L15.111 4.34884V12.6127L11.6354 9.13717L10.9696 9.80301L14.3838 13.2219ZM2.50739 3.77745H14.346L8.42434 9.66606L2.50739 3.77745Z" fill="black"/>
</g>
<defs>
<clipPath id="clip0_954_10257">
<rect width="17" height="17" fill="white"/>
</clipPath>
</defs>
</svg>
