<svg width="17" height="17" viewBox="0 0 17 17" fill="none" xmlns="http://www.w3.org/2000/svg">
<g clip-path="url(#clip0_954_10292)">
<path d="M8.48631 5.59566C8.85143 5.59566 9.14742 5.29967 9.14742 4.93455C9.14742 4.56943 8.85143 4.27344 8.48631 4.27344C8.12118 4.27344 7.8252 4.56943 7.8252 4.93455C7.8252 5.29967 8.12118 5.59566 8.48631 5.59566Z" fill="black"/>
<path d="M9.91688 11.8054H8.97244V6.6582H7.55577C7.43053 6.6582 7.31042 6.70795 7.22186 6.79651C7.1333 6.88507 7.08355 7.00518 7.08355 7.13043C7.08355 7.25567 7.1333 7.37578 7.22186 7.46434C7.31042 7.5529 7.43053 7.60265 7.55577 7.60265H8.02799V11.8054H7.08355C6.95831 11.8054 6.8382 11.8552 6.74964 11.9437C6.66108 12.0323 6.61133 12.1524 6.61133 12.2776C6.61133 12.4029 6.66108 12.523 6.74964 12.6116C6.8382 12.7001 6.95831 12.7499 7.08355 12.7499H9.91688C10.0421 12.7499 10.1622 12.7001 10.2508 12.6116C10.3394 12.523 10.3891 12.4029 10.3891 12.2776C10.3891 12.1524 10.3394 12.0323 10.2508 11.9437C10.1622 11.8552 10.0421 11.8054 9.91688 11.8054Z" fill="black"/>
<path d="M8.4999 16.0555C7.00555 16.0555 5.54476 15.6123 4.30225 14.7821C3.05975 13.9519 2.09133 12.7719 1.51947 11.3913C0.94761 10.0107 0.797984 8.49151 1.08952 7.02588C1.38105 5.56025 2.10065 4.21397 3.15731 3.15731C4.21397 2.10065 5.56025 1.38105 7.02588 1.08952C8.49151 0.797984 10.0107 0.94761 11.3913 1.51947C12.7719 2.09133 13.9519 3.05975 14.7821 4.30225C15.6123 5.54476 16.0555 7.00555 16.0555 8.4999C16.0555 10.5038 15.2594 12.4255 13.8425 13.8425C12.4255 15.2594 10.5038 16.0555 8.4999 16.0555ZM8.4999 1.88878C7.19234 1.88878 5.91415 2.27652 4.82696 3.00296C3.73977 3.7294 2.8924 4.76191 2.39202 5.96993C1.89165 7.17796 1.76072 8.50723 2.01581 9.78966C2.27091 11.0721 2.90055 12.2501 3.82513 13.1747C4.74971 14.0992 5.9277 14.7289 7.21013 14.984C8.49256 15.2391 9.82184 15.1081 11.0299 14.6078C12.2379 14.1074 13.2704 13.26 13.9968 12.1728C14.7233 11.0856 15.111 9.80745 15.111 8.4999C15.111 6.74652 14.4145 5.06496 13.1747 3.82513C11.9348 2.58531 10.2533 1.88878 8.4999 1.88878Z" fill="black"/>
</g>
<defs>
<clipPath id="clip0_954_10292">
<rect width="17" height="17" fill="white"/>
</clipPath>
</defs>
</svg>
