<svg width="17" height="17" viewBox="0 0 17 17" fill="none" xmlns="http://www.w3.org/2000/svg">
<g clip-path="url(#clip0_954_10299)">
<path d="M8.49978 3.17285C7.96462 3.17285 7.44147 3.33155 6.9965 3.62887C6.55153 3.92619 6.20471 4.34878 5.99992 4.84321C5.79512 5.33763 5.74153 5.88169 5.84594 6.40657C5.95034 6.93145 6.20805 7.41358 6.58647 7.792C6.96488 8.17042 7.44702 8.42812 7.9719 8.53253C8.49678 8.63693 9.04083 8.58335 9.53526 8.37855C10.0297 8.17375 10.4523 7.82694 10.7496 7.38197C11.0469 6.93699 11.2056 6.41385 11.2056 5.87868C11.2056 5.16105 10.9205 4.47281 10.4131 3.96537C9.90565 3.45793 9.21741 3.17285 8.49978 3.17285ZM8.49978 7.64007C8.15141 7.64007 7.81086 7.53677 7.5212 7.34323C7.23155 7.14968 7.00578 6.87459 6.87247 6.55274C6.73915 6.23089 6.70427 5.87673 6.77224 5.53505C6.8402 5.19338 7.00796 4.87953 7.25429 4.63319C7.50062 4.38686 7.81447 4.2191 8.15615 4.15114C8.49783 4.08318 8.85198 4.11806 9.17383 4.25137C9.49569 4.38469 9.77078 4.61045 9.96432 4.90011C10.1579 5.18977 10.2612 5.53031 10.2612 5.87868C10.2599 6.34502 10.0738 6.79182 9.7436 7.12112C9.41341 7.45043 8.96611 7.63535 8.49978 7.63535V7.64007Z" fill="black"/>
<path d="M8.50028 0.944336C7.0294 0.945564 5.61877 1.5288 4.57649 2.56665C3.53421 3.60451 2.94498 5.01264 2.9375 6.4835C2.9375 8.68878 4.17472 10.5352 5.08139 11.881L5.24667 12.1266C6.149 13.4338 7.11671 14.6946 8.14611 15.9043L8.505 16.3246L8.86389 15.9043C9.89329 14.6946 10.861 13.4338 11.7633 12.1266L11.9286 11.8763C12.8306 10.5304 14.0678 8.68878 14.0678 6.4835C14.0603 5.01182 13.4704 3.60298 12.4271 2.56499C11.3838 1.527 9.97198 0.944317 8.50028 0.944336ZM11.14 11.3332L10.97 11.5835C10.1578 12.8018 9.08111 14.1666 8.50028 14.8418C7.94306 14.1666 6.84278 12.8018 6.03056 11.5835L5.86528 11.3332C5.02944 10.0866 3.88194 8.38184 3.88194 6.46461C3.88194 5.85813 4.0014 5.25758 4.23349 4.69725C4.46559 4.13693 4.80577 3.62781 5.23462 3.19896C5.66348 2.77011 6.1726 2.42992 6.73292 2.19783C7.29324 1.96574 7.89379 1.84628 8.50028 1.84628C9.10677 1.84628 9.70732 1.96574 10.2676 2.19783C10.828 2.42992 11.3371 2.77011 11.7659 3.19896C12.1948 3.62781 12.535 4.13693 12.7671 4.69725C12.9992 5.25758 13.1186 5.85813 13.1186 6.46461C13.1186 8.40072 11.9758 10.1054 11.14 11.3332Z" fill="black"/>
</g>
<defs>
<clipPath id="clip0_954_10299">
<rect width="17" height="17" fill="white"/>
</clipPath>
</defs>
</svg>
