<svg width="17" height="17" viewBox="0 0 17 17" fill="none" xmlns="http://www.w3.org/2000/svg">
<g clip-path="url(#clip0_954_10268)">
<path d="M8.4528 8.16942C9.7278 8.16942 10.7195 7.13053 10.7195 5.85553C10.7195 4.58053 9.68058 3.58887 8.40558 3.58887C7.13058 3.58887 6.13892 4.62776 6.13892 5.85553C6.13892 7.13053 7.1778 8.16942 8.4528 8.16942ZM8.40558 4.53331C8.4528 4.53331 8.4528 4.53331 8.40558 4.53331C9.16114 4.53331 9.77503 5.1472 9.77503 5.90276C9.77503 6.65831 9.16114 7.22498 8.40558 7.22498C7.65003 7.22498 7.08336 6.61109 7.08336 5.90276C7.08336 5.1472 7.69725 4.53331 8.40558 4.53331Z" fill="black"/>
<path d="M15.4413 7.88626C14.5441 7.08348 13.3636 6.65848 12.1358 6.7057H11.758C11.6636 7.08348 11.5219 7.41404 11.333 7.69737C11.6163 7.65015 11.8525 7.65015 12.1358 7.65015C13.033 7.60292 13.9302 7.88626 14.6386 8.4057V11.8057H15.583V8.02792L15.4413 7.88626Z" fill="black"/>
<path d="M11.0498 3.68305C11.2859 3.11638 11.947 2.83305 12.5609 3.06916C13.1276 3.30527 13.4109 3.96638 13.1748 4.58027C12.9859 5.00527 12.5609 5.28861 12.1359 5.28861C12.0414 5.28861 11.8998 5.28861 11.8053 5.24138C11.8526 5.4775 11.8526 5.71361 11.8526 5.9025V6.18583C11.947 6.18583 12.0414 6.23305 12.1359 6.23305C13.3164 6.23305 14.2609 5.28861 14.2609 4.15527C14.2609 2.97472 13.3164 2.03027 12.1831 2.03027C11.4276 2.03027 10.7664 2.40805 10.3887 3.06916C10.6248 3.21083 10.8609 3.39972 11.0498 3.68305Z" fill="black"/>
<path d="M5.66699 7.74425C5.4781 7.46092 5.33644 7.13036 5.24199 6.75258H4.86421C3.63644 6.70536 2.45588 7.13036 1.55866 7.88592L1.41699 8.02758V11.8054H2.36144V8.40536C3.11699 7.88592 3.96699 7.60258 4.86421 7.64981C5.14755 7.64981 5.43088 7.69703 5.66699 7.74425Z" fill="black"/>
<path d="M4.864 6.18591C4.95844 6.18591 5.05289 6.18591 5.14733 6.13869V5.85536C5.14733 5.61925 5.14733 5.38314 5.19455 5.19425C5.10011 5.24147 4.95844 5.24147 4.864 5.24147C4.25011 5.24147 3.73066 4.72203 3.73066 4.10814C3.73066 3.49425 4.25011 2.9748 4.864 2.9748C5.33622 2.9748 5.76122 3.25814 5.95011 3.68314C6.139 3.44703 6.42233 3.21092 6.65844 3.02203C6.04455 2.03036 4.76955 1.6998 3.77789 2.31369C2.78622 2.92758 2.45566 4.20258 3.06955 5.19425C3.44733 5.80814 4.10844 6.18591 4.864 6.18591Z" fill="black"/>
<path d="M12.3254 10.7195L12.231 10.5778C11.2865 9.53893 9.96432 8.92504 8.54766 8.97227C7.13099 8.92504 5.76155 9.53893 4.8171 10.5778L4.72266 10.7195V14.3084C4.72266 14.7334 5.05321 15.1112 5.52543 15.1112H11.5699C11.9949 15.1112 12.3727 14.7334 12.3727 14.3084V10.7195H12.3254ZM11.381 14.1667H5.6671V11.05C6.42266 10.2945 7.46155 9.91671 8.54766 9.91671C9.58655 9.86949 10.6254 10.2945 11.381 11.05V14.1667Z" fill="black"/>
</g>
<defs>
<clipPath id="clip0_954_10268">
<rect width="17" height="17" fill="white"/>
</clipPath>
</defs>
</svg>
