<svg width="17" height="17" viewBox="0 0 17 17" fill="none" xmlns="http://www.w3.org/2000/svg">
<g clip-path="url(#clip0_954_10278)">
<path d="M15.1677 4.72266H1.83211C1.59666 4.72266 1.37085 4.81619 1.20436 4.98268C1.03787 5.14917 0.944336 5.37498 0.944336 5.61043V14.2238C0.944336 14.4592 1.03787 14.685 1.20436 14.8515C1.37085 15.018 1.59666 15.1115 1.83211 15.1115H15.1677C15.4031 15.1115 15.6289 15.018 15.7954 14.8515C15.9619 14.685 16.0554 14.4592 16.0554 14.2238V5.61043C16.0554 5.37498 15.9619 5.14917 15.7954 4.98268C15.6289 4.81619 15.4031 4.72266 15.1677 4.72266ZM15.111 14.1671H1.88878V5.6671H15.111V14.1671Z" fill="black"/>
<path d="M14.2327 1.41656C14.2327 1.29132 14.183 1.17121 14.0944 1.08265C14.0059 0.994088 13.8858 0.944336 13.7605 0.944336H3.37164C3.2464 0.944336 3.12628 0.994088 3.03772 1.08265C2.94917 1.17121 2.89941 1.29132 2.89941 1.41656V1.88878H14.2327V1.41656Z" fill="black"/>
<path d="M15.1675 3.30523C15.1675 3.17999 15.1178 3.05988 15.0292 2.97132C14.9407 2.88276 14.8206 2.83301 14.6953 2.83301H2.41753C2.29229 2.83301 2.17218 2.88276 2.08362 2.97132C1.99506 3.05988 1.94531 3.17999 1.94531 3.30523V3.77745H15.1675V3.30523Z" fill="black"/>
<path d="M6.0538 12.6509C6.18467 12.7358 6.33699 12.7816 6.49296 12.7831C6.60533 12.7826 6.71634 12.7584 6.8188 12.7123L11.4324 10.6534C11.575 10.5914 11.6964 10.4891 11.7817 10.3591C11.867 10.2291 11.9124 10.077 11.9124 9.92146C11.9124 9.76595 11.867 9.61384 11.7817 9.4838C11.6964 9.35377 11.575 9.25148 11.4324 9.18951L6.8188 7.13062C6.69671 7.0764 6.56302 7.05351 6.42985 7.06401C6.29668 7.07451 6.16823 7.11808 6.05615 7.19077C5.94407 7.26345 5.8519 7.36296 5.788 7.48027C5.72409 7.59758 5.69047 7.72898 5.69019 7.86257V11.9803C5.69043 12.1135 5.72378 12.2445 5.78726 12.3616C5.85073 12.4786 5.94233 12.5781 6.0538 12.6509ZM6.3513 7.86257C6.35115 7.83885 6.35716 7.8155 6.36875 7.7948C6.38034 7.77411 6.39711 7.75678 6.41741 7.74451C6.44213 7.73767 6.46824 7.73767 6.49296 7.74451C6.51166 7.7407 6.53093 7.7407 6.54963 7.74451L11.1632 9.79868C11.1893 9.80932 11.2114 9.82772 11.2266 9.85138C11.2418 9.87504 11.2494 9.9028 11.2482 9.9309C11.2491 9.95835 11.2413 9.98537 11.2261 10.0082C11.2109 10.0311 11.1889 10.0486 11.1632 10.0584L6.54963 12.1173C6.52953 12.1289 6.50673 12.135 6.48352 12.135C6.46031 12.135 6.43751 12.1289 6.41741 12.1173C6.3977 12.1044 6.3814 12.0869 6.36989 12.0664C6.35838 12.0458 6.352 12.0228 6.3513 11.9992V7.86257Z" fill="black"/>
</g>
<defs>
<clipPath id="clip0_954_10278">
<rect width="17" height="17" fill="white"/>
</clipPath>
</defs>
</svg>
