<svg width="17" height="17" viewBox="0 0 17 17" fill="none" xmlns="http://www.w3.org/2000/svg">
<g clip-path="url(#clip0_954_10262)">
<path d="M12.5327 8.50009C12.5307 7.86512 12.4626 7.23209 12.3297 6.6112H14.0297C13.9426 6.35204 13.8368 6.09953 13.7133 5.85564H12.1313C11.8341 4.86205 11.3728 3.92515 10.7666 3.0837C10.3794 2.92088 9.97563 2.80054 9.56244 2.72481C10.3931 3.61668 11.0199 4.67853 11.3994 5.83675H8.85411V2.64453H8.14578V5.84148H5.6005C5.98073 4.68115 6.60919 3.6176 7.44217 2.72481C7.03077 2.79935 6.62862 2.9181 6.24272 3.07898C5.63409 3.9169 5.16965 4.85057 4.86855 5.84148H3.27717C3.15137 6.08981 3.04404 6.34708 2.95605 6.6112H4.67022C4.53726 7.23209 4.46921 7.86512 4.46717 8.50009C4.46859 9.19461 4.54779 9.8868 4.70328 10.5637H3.03161C3.12877 10.8286 3.24557 11.0859 3.38105 11.3334H4.90633C5.19529 12.2382 5.62389 13.0922 6.17661 13.8645C6.57235 14.0342 6.98572 14.1593 7.40911 14.2376C6.6383 13.397 6.04557 12.4091 5.66661 11.3334H8.1505V14.3273H8.85883V11.3334H11.3333C10.9529 12.4095 10.3586 13.3974 9.58605 14.2376C10.0114 14.1566 10.4264 14.0283 10.8233 13.8551C11.3751 13.0856 11.8037 12.2349 12.0936 11.3334H13.6047C13.7395 11.0905 13.8563 10.8379 13.9541 10.5779H12.2777C12.4406 9.89707 12.5262 9.20007 12.5327 8.50009ZM8.14578 10.5637H5.43522C5.10295 9.26404 5.08837 7.90351 5.39272 6.59703H8.14578V10.5637ZM11.5647 10.5637H8.85411V6.6112H11.6072C11.7429 7.23157 11.8094 7.86506 11.8055 8.50009C11.8099 9.19522 11.729 9.88826 11.5647 10.5637Z" fill="black"/>
<path d="M8.4999 0.944336C7.00555 0.944336 5.54476 1.38746 4.30225 2.21768C3.05975 3.04789 2.09133 4.22791 1.51947 5.60851C0.94761 6.9891 0.797984 8.50827 1.08952 9.97391C1.38105 11.4395 2.10065 12.7858 3.15731 13.8425C4.21397 14.8991 5.56025 15.6187 7.02588 15.9103C8.49151 16.2018 10.0107 16.0522 11.3913 15.4803C12.7719 14.9085 13.9519 13.94 14.7821 12.6975C15.6123 11.455 16.0555 9.99424 16.0555 8.49989C16.0555 6.49603 15.2594 4.57425 13.8425 3.15731C12.4255 1.74037 10.5038 0.944336 8.4999 0.944336ZM8.4999 15.111C7.19234 15.111 5.91415 14.7233 4.82696 13.9968C3.73977 13.2704 2.8924 12.2379 2.39202 11.0299C1.89165 9.82183 1.76072 8.49256 2.01581 7.21013C2.27091 5.9277 2.90055 4.74971 3.82513 3.82513C4.74971 2.90055 5.9277 2.2709 7.21013 2.01581C8.49256 1.76072 9.82184 1.89164 11.0299 2.39202C12.2379 2.8924 13.2704 3.73976 13.9968 4.82695C14.7233 5.91415 15.111 7.19234 15.111 8.49989C15.111 10.2533 14.4145 11.9348 13.1747 13.1747C11.9348 14.4145 10.2533 15.111 8.4999 15.111Z" fill="black"/>
</g>
<defs>
<clipPath id="clip0_954_10262">
<rect width="17" height="17" fill="white"/>
</clipPath>
</defs>
</svg>
